<?xml version="1.0" standalone="no"?>
<!DOCTYPE svg PUBLIC "-//W3C//DTD SVG 20010904//EN"
 "http://www.w3.org/TR/2001/REC-SVG-20010904/DTD/svg10.dtd">
<svg version="1.0" xmlns="http://www.w3.org/2000/svg"
 width="1200.000000pt" height="900.000000pt" viewBox="0 0 1200.000000 900.000000"
 preserveAspectRatio="xMidYMid meet">

<g transform="translate(0.000000,900.000000) scale(0.100000,-0.100000)"
fill="#000000" stroke="none">
<path d="M1415 8903 c-4 -54 -7 -105 -7 -113 1 -8 -4 -113 -10 -232 -8 -142
-15 -218 -22 -218 -6 0 -5 -4 2 -9 11 -6 11 -45 2 -207 -6 -109 -13 -302 -16
-429 -5 -253 -9 -291 -27 -298 -9 -4 -9 -6 1 -6 15 -1 16 -100 2 -316 -9 -152
-18 -402 -19 -552 -1 -71 -3 -83 -18 -83 -15 0 -15 -1 2 -14 17 -12 16 -14
-16 -19 -19 -3 -144 -11 -279 -17 -620 -26 -979 -49 -1000 -62 -10 -6 8 -7 50
-4 145 12 383 26 510 30 74 3 186 8 248 12 87 5 119 4 138 -7 21 -11 27 -11
34 1 6 10 42 16 127 21 178 11 203 11 203 -3 -1 -39 -10 -40 -281 -41 -145 -1
-232 -3 -194 -5 39 -2 74 -7 78 -11 13 -13 -175 -23 -563 -31 -328 -6 -346 -7
-175 -11 200 -4 338 -2 573 9 78 4 146 6 151 4 12 -4 -29 -82 -44 -82 -6 0
-22 -13 -36 -29 -25 -28 -49 -37 -127 -45 -33 -3 -51 7 -32 19 12 7 14 45 2
45 -5 0 -21 -13 -37 -30 -25 -26 -36 -30 -89 -31 -34 -1 -53 -3 -43 -6 10 -3
16 -10 14 -16 -2 -7 -1 -22 4 -34 6 -15 2 -28 -12 -44 -25 -29 -21 -53 9 -57
17 -3 23 -9 20 -25 -1 -12 1 -27 4 -33 4 -6 10 -24 12 -41 3 -16 13 -49 21
-73 9 -25 12 -47 7 -52 -5 -5 -88 -13 -183 -18 -186 -10 -390 -28 -398 -35
-11 -11 12 -11 139 1 74 7 208 15 298 18 152 5 162 4 162 -13 0 -10 11 -49 25
-87 33 -89 43 -173 24 -185 -9 -5 -10 -9 -2 -9 7 0 14 -24 18 -57 3 -32 17
-98 30 -148 13 -49 27 -109 30 -133 4 -23 15 -66 26 -94 10 -29 19 -54 19 -55
0 -2 -152 -3 -337 -4 -186 0 -360 -4 -388 -9 -28 -5 123 -6 340 -3 l390 5 37
-73 c20 -41 49 -110 64 -153 14 -44 44 -116 65 -160 22 -44 39 -86 39 -93 0
-9 -21 -14 -72 -15 -40 -1 -84 -3 -98 -4 -14 -1 -202 -3 -417 -3 -271 -1 -393
-4 -393 -12 0 -7 144 -8 486 -3 375 5 488 4 493 -5 8 -12 6 -122 -3 -176 -3
-16 -2 -55 3 -85 7 -54 8 -54 19 -27 10 24 14 26 26 14 8 -7 12 -26 10 -43
l-4 -29 12 26 11 27 22 -26 c18 -21 24 -23 43 -13 12 6 22 18 22 25 0 17 -25
38 -33 29 -4 -3 -7 9 -7 29 l0 34 73 17 c39 10 74 17 77 17 5 0 0 -292 -5
-298 -1 -1 -231 -5 -511 -8 -280 -4 -561 -10 -624 -14 -65 -5 154 -6 500 -3
338 2 619 5 624 6 6 1 9 -60 7 -153 -2 -85 -4 -196 -5 -247 0 -50 -3 -93 -6
-96 -5 -5 -612 -16 -985 -19 -213 -1 -245 -3 -245 -17 0 -5 457 -5 652 2 l77
2 -4 -25 c-5 -23 -4 -23 6 3 10 24 16 27 59 27 27 0 52 -5 55 -10 4 -7 11 -7
18 -2 7 5 92 12 191 14 l179 5 -5 -249 c-3 -136 -7 -250 -10 -253 -2 -3 -277
-8 -611 -12 -513 -5 -607 -8 -607 -20 0 -12 40 -14 257 -9 142 3 417 8 611 12
l353 6 -3 -245 c-2 -135 -6 -249 -11 -253 -4 -4 -276 -10 -605 -12 -522 -3
-597 -5 -600 -19 -3 -13 53 -14 490 -9 271 4 546 9 611 12 l117 6 0 -201 c0
-184 -2 -202 -18 -209 -27 -11 -135 -74 -153 -89 -13 -11 -103 -13 -481 -14
-256 0 -470 1 -474 2 -5 1 -28 1 -51 0 -31 -1 -43 -5 -43 -16 0 -13 60 -15
481 -15 476 0 480 0 474 -20 -4 -12 -2 -20 5 -20 6 0 9 4 6 8 -3 5 1 9 9 9 25
0 17 -17 -12 -28 -16 -6 -39 -20 -53 -33 -26 -24 -129 -59 -218 -76 -61 -11
-173 -40 -185 -47 -4 -2 -5 -8 -2 -13 3 -5 29 -2 58 7 28 9 90 24 137 34 47 9
119 27 160 39 105 30 117 33 104 23 -6 -4 -19 -23 -28 -41 -9 -18 -21 -30 -27
-27 -5 4 -8 2 -7 -3 4 -12 -41 -88 -69 -119 -13 -13 -23 -28 -23 -33 0 -6 -5
-10 -11 -10 -6 0 -8 -7 -5 -16 4 -11 -1 -22 -14 -31 -11 -8 -18 -19 -14 -24 7
-12 -33 -49 -53 -49 -7 0 -13 -5 -13 -12 0 -8 -72 -9 -282 -4 -156 3 -313 9
-350 12 l-68 7 1 -44 c1 -24 3 -36 6 -26 3 12 11 16 24 12 10 -3 29 -8 40 -11
12 -3 24 -1 28 4 6 10 1106 20 1116 10 7 -7 10 -366 3 -362 -4 3 -5 -2 -2 -10
3 -9 -5 -21 -23 -33 -15 -10 -34 -23 -41 -30 -8 -7 -19 -10 -25 -6 -7 3 -9 3
-5 -2 5 -5 -7 -18 -25 -29 -30 -19 -45 -20 -252 -19 -290 3 -588 15 -550 23
l30 6 -34 6 c-19 3 -51 1 -70 -3 -41 -10 -168 -10 -154 0 5 3 8 24 8 46 -1 52
4 65 24 66 10 0 12 2 3 6 -7 3 -19 0 -27 -7 -12 -10 -19 -6 -38 16 -20 23 -24
36 -19 68 4 28 2 37 -6 32 -9 -5 -12 -89 -12 -296 l0 -289 23 -4 c22 -4 22 -4
-3 -15 -14 -6 -19 -11 -12 -11 9 -1 10 -5 1 -20 -7 -11 -9 -26 -4 -37 13 -31
15 -54 5 -54 -6 0 -10 -16 -10 -35 0 -27 4 -35 18 -35 13 0 14 -2 3 -9 -11 -7
-10 -10 6 -15 28 -9 25 -36 -4 -36 -13 0 -23 -4 -23 -10 0 -5 4 -10 9 -10 5 0
14 -13 19 -29 8 -22 7 -34 -5 -50 -8 -12 -12 -30 -8 -41 4 -11 2 -20 -4 -20
-6 0 -11 -9 -11 -20 0 -19 6 -20 203 -19 193 0 201 1 169 16 -27 14 -32 22
-32 52 1 32 2 34 14 18 13 -16 14 -16 19 4 3 13 -1 28 -10 37 -9 10 -13 25 -9
43 3 19 1 29 -10 33 -23 9 -31 7 -15 -3 10 -6 12 -19 7 -46 l-7 -38 -27 37
c-16 24 -31 35 -41 31 -8 -3 -17 -2 -20 3 -3 5 -23 21 -43 35 -29 19 -34 26
-22 31 21 8 65 -4 58 -15 -3 -5 15 -9 40 -9 25 0 46 5 46 10 0 6 7 10 15 10 8
0 15 -5 15 -12 0 -6 8 -4 19 6 12 11 34 18 58 17 222 -6 362 -8 433 -9 47 0
99 -6 115 -12 21 -8 31 -8 33 -1 2 7 44 11 110 11 64 0 101 -4 93 -9 -9 -6
-10 -10 -2 -16 9 -5 9 -10 0 -21 -9 -12 -9 -13 3 -9 21 8 28 -22 28 -117 l0
-78 41 0 41 0 -8 124 -7 124 184 -4 c101 -2 198 -4 214 -5 17 -1 90 0 163 2
114 4 132 2 132 -11 0 -12 2 -12 9 -2 9 15 13 15 656 26 187 4 360 8 385 11
25 2 140 7 255 10 116 3 269 7 340 10 72 3 209 7 305 10 96 3 220 8 275 10 55
2 219 7 365 10 146 3 315 7 375 10 61 3 202 7 315 10 113 3 252 8 310 10 58 3
272 10 475 15 204 6 489 14 635 20 146 5 445 15 665 21 220 6 402 13 405 16 6
7 -544 -3 -960 -17 -162 -5 -524 -17 -805 -25 -280 -8 -582 -17 -670 -20 -88
-2 -266 -7 -395 -10 -129 -3 -282 -8 -340 -10 -58 -2 -208 -7 -335 -10 -126
-3 -300 -8 -385 -11 -596 -21 -1624 -40 -1950 -37 -36 1 -189 1 -342 2 l-276
2 -6 82 c-3 45 -8 155 -11 243 l-6 162 358 1 c197 0 439 3 538 6 1077 33 1794
54 2035 60 118 3 280 7 360 10 80 3 271 7 425 10 369 8 1301 33 1440 40 121 5
229 9 1010 30 771 21 939 27 945 33 5 5 -600 -4 -850 -13 -194 -7 -444 -14
-680 -20 -113 -3 -252 -8 -310 -10 -100 -5 -1148 -32 -2095 -55 -242 -6 -492
-13 -555 -15 -63 -3 -299 -9 -525 -15 -225 -5 -457 -12 -515 -15 -125 -6 -735
-15 -1227 -19 l-353 -3 0 62 c0 57 2 64 27 81 15 9 33 17 40 17 7 0 11 3 8 5
-9 9 57 51 71 45 8 -3 14 -1 14 5 0 8 28 19 70 27 3 0 15 6 28 13 12 7 28 12
35 11 6 -2 28 5 47 14 19 9 54 21 78 27 45 11 57 30 20 30 -25 -1 -83 -13
-112 -25 -30 -13 -4 26 32 47 26 16 31 16 42 3 17 -20 50 -19 66 3 21 27 16
64 -13 94 -17 18 -23 32 -17 37 5 5 104 12 219 15 228 7 376 11 820 26 267 9
790 21 1490 35 154 3 318 7 365 10 47 3 245 7 440 10 195 3 434 7 530 10 96 3
357 10 580 15 223 6 461 12 530 15 69 2 233 7 365 10 132 3 287 7 345 10 58 3
191 7 295 10 490 14 860 25 965 30 63 3 270 10 460 16 190 6 347 13 350 16 5
6 -399 -4 -560 -12 -47 -3 -283 -10 -525 -15 -242 -6 -489 -12 -550 -15 -60
-2 -209 -7 -330 -10 -319 -8 -914 -24 -1100 -30 -88 -2 -297 -7 -465 -10 -168
-4 -489 -10 -715 -15 -225 -6 -626 -14 -890 -20 -455 -9 -824 -19 -1615 -40
-769 -20 -976 -23 -998 -11 -15 8 -21 21 -20 49 0 20 -14 80 -31 132 -18 52
-33 112 -35 134 -2 21 -8 41 -14 45 -13 8 -25 85 -17 110 5 17 16 19 113 20
132 2 794 19 997 26 183 6 496 13 920 20 176 3 514 10 750 15 237 5 567 12
735 15 168 3 467 10 665 15 198 5 491 12 650 15 295 5 548 11 845 20 91 3 257
7 370 10 599 15 962 26 1020 29 36 3 262 10 502 17 241 7 438 17 438 21 0 5
-8 7 -18 4 -9 -2 -152 -7 -317 -11 -165 -3 -313 -8 -330 -10 -16 -2 -178 -7
-360 -10 -181 -3 -370 -8 -420 -10 -49 -2 -227 -7 -395 -10 -168 -3 -354 -7
-415 -10 -60 -3 -261 -7 -445 -10 -184 -3 -398 -8 -475 -10 -179 -6 -557 -13
-990 -20 -187 -3 -509 -10 -715 -15 -206 -5 -503 -12 -660 -15 -317 -6 -933
-20 -1525 -35 -214 -5 -516 -12 -670 -16 l-281 -7 -36 54 c-21 30 -42 74 -47
99 -5 24 -18 50 -27 57 -21 15 -70 17 -79 3 -3 -5 2 -10 11 -10 11 0 14 -3 9
-8 -11 -10 -122 -59 -144 -64 -11 -2 -13 28 -12 182 2 102 3 186 4 186 5 4
1595 42 2502 59 171 4 378 8 460 10 83 2 294 6 470 10 404 7 1172 23 1460 30
121 3 580 12 1020 21 440 9 892 19 1005 24 163 7 129 7 -165 3 -203 -2 -451
-6 -550 -8 -99 -2 -355 -7 -570 -10 -214 -3 -617 -10 -895 -15 -278 -5 -674
-12 -880 -15 -206 -3 -413 -8 -460 -10 -47 -3 -220 -7 -385 -10 -165 -3 -484
-10 -710 -15 -225 -5 -518 -12 -650 -15 -132 -3 -321 -7 -420 -10 -99 -3 -333
-7 -520 -10 -187 -3 -424 -8 -527 -11 l-188 -7 0 257 0 256 223 0 c122 0 407
5 632 10 658 15 881 20 1200 25 165 3 395 8 510 10 467 11 684 16 1195 25 294
5 612 12 705 15 94 2 343 7 555 10 212 3 477 7 590 10 113 3 387 7 610 11 223
3 430 8 460 9 30 2 143 5 250 6 107 1 173 5 145 8 -27 3 -196 3 -375 0 -289
-6 -584 -10 -1605 -24 -154 -2 -424 -6 -600 -10 -176 -3 -466 -7 -645 -10
-179 -3 -388 -7 -465 -10 -77 -3 -347 -10 -600 -15 -253 -5 -550 -12 -660 -15
-408 -10 -1110 -23 -1635 -30 -217 -3 -417 -8 -444 -11 l-48 -6 3 250 c3 138
6 252 9 255 3 2 340 10 750 16 701 11 1019 17 2238 41 273 5 747 14 1052 20
305 5 652 12 770 15 118 2 455 7 748 11 302 4 535 11 538 16 4 6 -62 7 -162 4
-93 -3 -459 -8 -814 -11 -355 -3 -683 -8 -730 -10 -47 -2 -295 -7 -551 -11
-256 -3 -488 -7 -515 -9 -27 -1 -213 -6 -414 -9 -201 -3 -444 -9 -540 -11
-252 -8 -1175 -23 -1740 -30 -267 -3 -518 -8 -559 -11 l-74 -5 5 251 c3 137 7
252 9 254 2 2 229 6 504 10 1006 13 2466 35 2685 41 124 2 396 7 605 10 209 3
481 7 605 10 124 3 545 10 935 16 391 5 766 11 835 13 69 2 -224 1 -650 -1
-426 -2 -894 -5 -1040 -8 -146 -3 -393 -7 -550 -10 -157 -3 -523 -10 -815 -15
-987 -18 -1149 -20 -1885 -30 -404 -5 -846 -12 -982 -15 l-248 -6 1 113 c0 62
4 135 7 162 8 58 -21 46 282 116 118 28 271 65 340 84 l125 34 580 7 c1065 13
1595 12 1607 -3 6 -7 18 -10 27 -6 9 4 126 6 261 5 141 -1 332 4 450 13 348
25 376 26 1255 42 193 3 352 8 355 11 2 2 -136 3 -307 1 -324 -3 -411 5 -156
15 81 3 159 10 173 16 19 8 2 10 -75 6 -55 -2 -170 -7 -255 -10 -85 -3 -301
-14 -480 -25 -179 -10 -491 -21 -695 -23 -397 -4 -407 -2 -196 40 47 9 79 19
72 21 -16 5 -120 -14 -245 -45 -54 -13 -100 -22 -103 -20 -7 8 88 59 227 123
116 53 136 60 142 45 6 -14 8 -13 13 4 4 14 47 38 148 82 183 81 351 143 382
143 14 0 25 6 25 13 0 30 69 57 168 67 178 18 384 20 409 4 12 -8 34 -14 48
-14 14 0 25 -5 25 -11 0 -5 5 -7 10 -4 6 3 10 13 10 22 0 13 -8 14 -42 10 -38
-6 -40 -5 -18 5 14 6 75 15 135 19 61 4 -82 5 -317 3 l-428 -3 0 41 c0 24 -6
45 -15 52 -17 13 -41 124 -56 256 -5 52 -12 103 -15 112 -4 13 -1 16 9 12 25
-9 28 12 3 24 -18 8 -27 24 -36 64 -6 29 -24 105 -40 168 -16 63 -31 135 -35
160 -4 25 -9 53 -11 63 -5 16 11 17 223 18 125 1 296 5 378 9 98 5 20 6 -227
4 -244 -3 -379 -1 -383 6 -3 5 -13 44 -21 87 -9 43 -20 96 -24 118 -6 27 -5
42 3 47 9 6 9 10 1 16 -11 7 -48 181 -41 189 7 6 625 19 1052 22 236 1 432 5
435 8 6 7 -1469 -5 -1480 -12 -11 -7 -20 31 -26 105 -2 36 -9 87 -14 113 -6
26 -10 62 -10 78 0 41 -18 73 -33 60 -7 -5 -27 -11 -46 -13 -19 -2 -36 -9 -38
-15 -2 -6 6 -9 19 -6 40 8 29 -35 -32 -127 -32 -47 -70 -108 -86 -137 -16 -28
-38 -54 -49 -57 -16 -5 -17 -8 -6 -15 11 -7 7 -17 -18 -52 -18 -24 -53 -76
-79 -116 -42 -63 -50 -70 -67 -60 -34 18 -258 205 -263 218 -2 5 72 9 164 9
92 0 165 2 163 5 -3 2 -84 5 -180 5 l-176 2 -64 48 c-35 27 -70 49 -76 50 -9
0 -13 -16 -13 -50 l0 -50 -502 -1 c-277 -1 -532 -1 -567 1 -39 1 -61 -2 -58
-7 4 -6 -8 -9 -28 -6 -19 2 -35 -1 -35 -6 0 -15 14 -16 152 -9 73 3 337 10
587 14 l454 7 -7 -59 c-4 -32 -9 -87 -13 -121 l-5 -62 36 -17 c33 -16 53 -40
23 -28 -7 2 -24 0 -38 -5 -19 -8 -11 -9 39 -9 89 0 98 -15 25 -41 -32 -12 -72
-28 -88 -36 -17 -7 -53 -24 -80 -36 -28 -13 -53 -25 -58 -27 -4 -2 -7 3 -7 12
0 22 -19 20 -26 -1 -3 -10 -10 -26 -15 -35 -7 -13 -4 -23 11 -38 11 -11 20
-31 20 -44 0 -13 6 -36 14 -51 8 -15 22 -55 30 -89 32 -125 66 -267 66 -276 0
-6 -49 -11 -112 -12 l-113 -2 119 -6 120 -5 12 -50 c7 -27 22 -84 34 -125 60
-209 79 -295 67 -302 -9 -6 -9 -8 0 -8 12 0 40 -86 67 -205 9 -38 26 -117 40
-175 l23 -105 -266 -8 c-168 -5 -327 -4 -432 2 -240 16 -419 14 -443 -4 -15
-12 -91 -14 -439 -15 -231 0 -423 -3 -428 -6 -5 -3 -23 4 -39 16 -23 16 -30
29 -30 53 0 18 -5 75 -11 127 -10 76 -9 115 2 195 l14 100 290 5 c160 3 283 7
275 9 -8 2 -138 2 -287 1 l-273 -2 0 23 c0 29 28 275 41 364 6 39 21 153 34
254 14 101 26 185 28 187 1 2 61 4 132 5 205 2 1164 56 1174 65 10 9 -191 1
-594 -25 -82 -6 -247 -13 -365 -16 -118 -3 -245 -8 -282 -10 l-68 -3 0 31 c0
38 15 166 35 292 15 97 67 269 88 289 6 7 50 18 97 25 47 7 103 17 125 21 l40
7 -43 2 c-24 0 -75 -4 -114 -10 -54 -8 -76 -8 -94 1 -18 10 -29 10 -56 0 -34
-13 -234 -19 -710 -21 -134 -1 -230 -5 -213 -9 17 -4 23 -9 15 -10 -8 -1 -28
-4 -44 -6 l-29 -5 6 248 c4 136 9 289 12 338 2 50 7 164 10 255 29 853 61
1620 70 1703 5 44 4 47 -18 47 -23 0 -24 -3 -32 -97z m3489 -2245 c3 -29 8
-80 11 -113 4 -33 8 -68 11 -77 5 -15 -6 -17 -95 -17 -56 0 -101 3 -101 6 0
24 145 253 161 253 4 0 10 -24 13 -52z m-784 -193 c10 -12 10 -15 -2 -15 -8 0
-15 7 -15 15 0 8 1 15 2 15 2 0 8 -7 15 -15z m818 -63 c6 -20 14 -65 18 -100
6 -55 4 -65 -12 -77 -18 -14 -18 -14 4 -15 17 0 22 -6 23 -27 3 -47 5 -57 16
-83 5 -14 23 -88 38 -165 15 -77 38 -180 52 -228 13 -49 24 -109 25 -133 0
-24 4 -47 9 -50 5 -3 9 -14 9 -24 0 -18 -10 -20 -142 -23 l-143 -3 147 -2 146
-2 6 -27 c23 -109 57 -452 45 -454 -2 0 -232 -2 -510 -5 l-506 -5 -23 83 c-12
46 -33 121 -47 168 -83 280 -184 679 -181 715 3 27 12 34 78 67 83 41 193 78
233 78 21 0 25 -4 21 -17 -4 -13 -3 -15 4 -5 23 32 1 58 -89 107 -102 55 -99
48 -77 188 l13 78 38 -4 c25 -3 49 -14 70 -34 18 -16 39 -35 47 -41 8 -6 49
-41 90 -77 41 -37 87 -74 103 -83 15 -9 27 -20 27 -24 0 -4 5 -8 12 -8 14 0
48 -30 48 -42 0 -4 -9 -3 -20 4 -22 14 -33 8 -25 -14 6 -15 75 -13 75 3 0 5
-4 9 -9 9 -12 0 1 56 22 97 9 17 39 60 65 95 27 35 56 77 65 93 l15 30 105 -3
104 -3 11 -37z m-2898 14 c0 -9 -117 -30 -280 -51 -19 -2 -115 -5 -213 -7
l-177 -3 0 23 c0 20 5 22 63 23 34 1 127 4 207 8 220 9 400 13 400 7z m57 -22
c-3 -3 -12 -4 -19 -1 -8 3 -5 6 6 6 11 1 17 -2 13 -5z m-47 -26 c-30 -4 -77
-13 -105 -18 -110 -21 -319 -51 -334 -47 -9 2 7 7 34 11 28 4 113 18 190 31
148 26 191 32 240 32 17 0 5 -4 -25 -9z m175 4 c-9 -8 -231 -83 -280 -95 -11
-3 -46 -15 -79 -27 -104 -38 -70 -14 56 40 132 56 336 111 303 82z m122 -5
c-18 -49 -57 -181 -57 -197 0 -10 -4 -21 -8 -24 -5 -3 -9 -26 -10 -51 -1 -72
-13 -146 -23 -139 -5 3 -9 0 -9 -5 0 -6 3 -11 8 -11 4 0 5 -30 2 -67 l-5 -68
-140 -7 c-77 -4 -228 -17 -334 -29 -188 -20 -253 -19 -266 2 -7 10 2 18 124
112 l75 57 175 2 176 2 -169 6 -169 5 102 75 c57 41 109 74 117 72 8 -2 14 3
14 11 0 8 51 51 113 97 61 46 127 95 146 109 19 14 48 34 65 43 38 21 80 24
73 5z m-724 -34 c-7 -2 -21 -2 -30 0 -10 3 -4 5 12 5 17 0 24 -2 18 -5z m327
-11 c-71 -35 -206 -90 -240 -97 -19 -4 -64 -22 -100 -40 -53 -26 -221 -85
-244 -85 -3 0 -4 31 -3 70 1 70 1 70 32 75 16 3 82 14 145 24 63 11 153 25
200 31 47 6 114 17 150 24 89 19 101 18 60 -2z m-642 -5 c10 -27 0 -47 -23
-47 -14 0 -40 -6 -58 -13 -18 -8 -56 -17 -85 -21 -29 -4 -60 -10 -69 -13 -11
-4 -14 -3 -9 5 11 18 -34 15 -54 -3 -9 -8 -34 -16 -56 -18 -37 -2 -39 -1 -37
27 1 19 13 38 30 52 15 13 24 24 18 26 -11 2 273 14 315 12 14 0 26 -4 28 -7z
m261 9 c-2 -2 -24 -7 -49 -9 -25 -3 -65 -13 -89 -21 -57 -21 -61 -20 -61 9 l0
25 102 0 c56 0 99 -2 97 -4z m484 -92 c-65 -48 -174 -130 -243 -183 l-125 -96
-162 -3 -163 -3 0 55 c0 46 4 57 21 66 11 7 123 42 247 80 125 38 292 91 372
119 80 27 151 50 158 50 8 1 -40 -38 -105 -85z m-470 59 c-7 -2 -19 -2 -25 0
-7 3 -2 5 12 5 14 0 19 -2 13 -5z m-50 -10 c-7 -2 -19 -2 -25 0 -7 3 -2 5 12
5 14 0 19 -2 13 -5z m-218 -72 c-3 -10 -6 -44 -6 -74 l-1 -55 -99 -32 -100
-32 -54 42 c-30 24 -55 45 -55 49 0 4 30 8 67 9 99 5 90 12 -14 12 -66 0 -94
4 -102 14 -11 13 49 31 274 79 11 3 37 5 58 6 33 1 38 -1 32 -18z m-265 5 c0
-2 -9 -6 -20 -9 -11 -3 -18 -1 -14 4 5 9 34 13 34 5z m700 -5 c-19 -10 -86
-23 -77 -15 6 6 61 21 82 23 6 0 3 -3 -5 -8z m-1091 -102 c-22 -14 -33 -10
-19 6 7 8 17 12 22 9 6 -4 5 -10 -3 -15z m156 -1 c-4 -13 -14 -34 -23 -48 -15
-25 -15 -25 6 -6 21 18 21 18 19 -4 -1 -12 -11 -27 -24 -33 -19 -8 -20 -11 -7
-25 13 -13 17 -12 30 4 15 18 15 18 10 1 -3 -10 -6 -27 -6 -38 0 -17 -5 -15
-34 13 -23 22 -31 36 -25 44 12 14 -15 38 -35 31 -9 -4 -16 3 -20 16 -10 38
-7 49 12 43 9 -3 31 1 47 9 45 20 57 19 50 -7z m193 -44 c28 -25 52 -49 52
-53 0 -5 -35 -18 -77 -30 -43 -12 -88 -26 -99 -31 -20 -8 -22 -5 -22 32 -1 22
4 52 10 66 6 15 10 32 9 39 -1 10 19 18 59 22 9 0 39 -20 68 -45z m231 -38
c-16 -14 -100 -43 -104 -36 -3 5 16 15 42 23 50 16 69 20 62 13z m71 -25 c0
-25 -5 -30 -45 -41 -25 -7 -45 -16 -45 -20 0 -5 8 -6 18 -3 10 2 29 0 43 -6
20 -7 26 -17 27 -40 0 -17 -2 -31 -4 -31 -16 0 -151 107 -144 113 7 6 134 56
143 57 4 0 7 -13 7 -29z m-580 -26 c10 -12 5 -16 -33 -26 -43 -10 -46 -13 -62
-65 -10 -32 -22 -53 -29 -51 -13 5 -11 80 3 85 4 1 26 18 47 37 43 39 56 42
74 20z m366 -10 c-23 -17 -74 -28 -107 -23 -20 3 -17 6 21 20 25 9 59 17 75
17 28 0 29 0 11 -14z m28 -26 c-16 -6 -15 -8 8 -8 16 -1 56 -22 97 -53 68 -50
71 -54 71 -93 l0 -40 -198 1 c-444 1 -474 3 -460 19 7 8 58 29 113 46 55 18
95 34 88 36 -7 2 -21 0 -32 -6 -31 -17 -55 -12 -75 15 -19 26 -19 26 4 19 13
-4 25 -3 29 3 4 7 22 6 53 -5 44 -14 50 -14 105 6 116 40 158 57 178 68 11 6
24 9 29 5 5 -3 1 -9 -10 -13z m176 11 c0 -5 -8 -10 -17 -10 -15 0 -16 2 -3 10
19 12 20 12 20 0z m-349 -47 c-49 -22 -56 -22 -70 -9 -8 9 -12 19 -8 22 10 11
79 20 107 15 22 -4 18 -7 -29 -28z m689 28 c0 -13 -104 -98 -129 -106 -10 -3
-24 -17 -31 -30 -7 -14 -16 -25 -19 -25 -3 0 -28 13 -56 28 -53 29 -59 43 -48
110 l5 32 139 0 c81 0 139 -4 139 -9z m-917 -86 l17 -24 -47 -13 c-27 -8 -49
-11 -51 -7 -5 11 40 69 52 69 6 0 19 -11 29 -25z m707 -86 l35 -19 -55 3 c-49
2 -55 4 -58 25 -3 21 -1 23 20 17 13 -4 39 -16 58 -26z m810 -13 c0 -49 -31
-270 -39 -278 -3 -4 -110 -8 -236 -9 -127 -1 -309 -5 -405 -9 -113 -5 -33 -6
226 -3 221 3 404 1 407 -4 2 -4 -1 -51 -8 -103 -7 -52 -18 -154 -25 -226 -7
-72 -15 -136 -19 -142 -4 -7 -138 -14 -396 -20 l-390 -9 393 -1 393 -2 -8 -62
c-10 -78 -9 -210 1 -303 l8 -70 -53 -25 c-52 -24 -65 -25 -304 -30 -137 -3
-299 -5 -360 -5 l-110 0 1 30 c1 17 7 226 13 465 7 239 14 464 16 500 2 36 4
114 4 173 l1 108 93 -2 c50 -1 115 3 142 9 45 10 151 22 365 42 41 4 123 8
183 8 l107 2 0 -34z m-982 -22 l43 -5 -2 -97 c-3 -138 -9 -172 -28 -173 -12
-1 -11 -3 3 -6 18 -5 19 -15 13 -246 -4 -161 -10 -243 -18 -248 -8 -4 -8 -8 0
-13 10 -7 6 -390 -5 -463 l-5 -33 -114 0 c-96 0 -115 3 -115 15 0 8 -7 15 -15
15 -8 0 -12 6 -9 14 3 8 1 17 -5 21 -6 3 -11 15 -11 26 0 10 -4 19 -8 19 -4 0
-16 14 -25 30 -10 17 -15 30 -12 30 4 0 -1 7 -10 16 -9 9 -14 23 -11 30 3 7 1
16 -4 19 -4 3 -16 31 -26 63 -9 31 -20 62 -24 67 -4 6 -13 27 -19 47 -7 20
-19 42 -27 48 -7 7 -14 16 -14 21 0 5 72 9 160 9 88 0 160 3 160 8 0 4 -74 6
-164 4 l-164 -3 -12 35 c-6 20 -9 40 -5 46 3 5 -2 21 -11 35 -9 14 -21 47 -26
73 -6 26 -12 58 -15 72 -3 14 -5 36 -5 50 0 14 -4 28 -10 31 -15 9 -30 113
-18 117 6 2 10 10 10 18 0 8 10 14 23 15 17 1 15 3 -10 10 -29 8 -32 14 -38
57 -3 26 -11 67 -18 92 -6 25 -10 49 -9 53 1 4 -2 16 -6 25 -5 9 -12 29 -16
44 l-6 28 292 -6 c161 -3 312 -7 336 -10z m3930 -762 c2 -6 -5 -8 -16 -5 -11
2 -23 0 -26 -6 -5 -7 2 -11 15 -11 26 0 15 -15 -16 -23 -17 -4 -16 -5 5 -6 21
-1 18 -5 -23 -26 -27 -14 -55 -25 -63 -25 -15 0 -83 -28 -211 -86 -82 -38
-103 -45 -103 -34 0 6 -9 1 -20 -10 -11 -11 -24 -20 -30 -20 -11 0 -90 -36
-258 -117 -61 -30 -117 -51 -122 -48 -6 3 -10 22 -10 41 0 19 -4 34 -10 34
-11 0 -13 -10 -10 -56 1 -18 -3 -35 -8 -38 -9 -5 -17 25 -52 179 -5 22 -16 69
-24 105 -11 45 -12 66 -5 71 6 3 8 16 5 27 -5 15 -2 22 11 26 10 3 3 4 -14 2
-18 -1 -33 1 -33 6 0 4 0 11 -1 16 -2 12 63 1 78 -14 8 -8 24 -13 36 -13 17 1
18 2 5 6 -10 2 -18 9 -18 14 0 7 30 8 83 4 204 -15 333 -13 321 6 -3 5 100 10
228 11 286 4 281 4 286 -10z m87 8 c3 -5 -1 -10 -10 -10 -9 0 -13 5 -10 10 3
6 8 10 10 10 2 0 7 -4 10 -10z m133 3 c-21 -2 -57 -2 -80 0 -24 2 -7 4 37 4
44 0 63 -2 43 -4z m-935 -10 c-7 -2 -19 -2 -25 0 -7 3 -2 5 12 5 14 0 19 -2
13 -5z m744 -39 c-3 -3 -12 -4 -19 -1 -8 3 -5 6 6 6 11 1 17 -2 13 -5z m711
-421 c-21 -2 -57 -2 -80 0 -24 2 -7 4 37 4 44 0 63 -2 43 -4z m-1365 -40 c-24
-2 -62 -2 -85 0 -24 2 -5 4 42 4 47 0 66 -2 43 -4z m210 0 c-29 -2 -78 -2
-110 0 -32 2 -8 3 52 3 61 0 87 -1 58 -3z m-2848 -32 c-3 -5 -85 -28 -183 -52
-97 -23 -231 -54 -296 -70 -65 -16 -123 -29 -127 -29 -5 0 -9 34 -9 75 l0 75
298 3 c163 1 303 3 310 5 7 1 11 -2 7 -7z m-665 -86 l0 -84 -52 -15 c-96 -27
-108 -29 -108 -15 0 7 -10 23 -22 36 -18 20 -20 28 -12 61 7 31 13 36 32 34
15 -2 22 2 22 12 0 9 -4 16 -9 16 -5 0 -16 2 -24 5 -9 4 -19 -7 -29 -32 l-16
-38 -1 38 c-1 21 -6 37 -13 37 -6 0 -9 3 -6 6 10 9 100 22 171 23 l67 1 0 -85z
m221 -2332 c3 -30 10 -50 28 -74 12 -16 21 -37 21 -48 0 -11 6 -21 13 -24 27
-10 -4 -14 -129 -20 l-132 -6 -3 32 c-6 49 0 74 19 81 9 3 42 16 72 30 31 14
57 20 61 15 3 -5 13 -7 22 -3 9 3 14 10 11 15 -3 5 0 9 5 9 6 0 11 -3 12 -7z
m-266 -133 c0 -36 -16 -43 -91 -38 l-49 3 44 23 c23 13 40 18 36 11 -5 -7 -3
-10 4 -8 7 3 12 8 11 13 -2 10 20 26 35 26 6 0 11 -14 10 -30z m357 -59 c6 -1
24 -113 21 -138 0 -7 4 -13 9 -13 5 0 8 -6 5 -12 -2 -7 3 -29 11 -48 8 -19 16
-47 18 -64 2 -16 7 -32 11 -35 5 -3 9 -13 10 -21 1 -8 7 -33 12 -55 5 -22 12
-54 16 -72 l7 -31 -56 -4 c-33 -2 -56 1 -56 7 0 7 -3 7 -8 0 -4 -5 -15 -11
-24 -11 -14 -1 -15 2 -5 17 7 11 15 19 19 19 5 0 8 6 8 14 0 8 7 21 15 30 8 8
18 35 21 59 6 40 4 47 -17 61 -23 14 -83 17 -104 4 -12 -7 -190 -68 -199 -68
-12 0 1 92 15 101 8 5 10 9 5 9 -5 0 -1 9 9 20 10 11 21 17 25 15 4 -3 21 8
37 24 17 16 38 33 47 38 11 6 14 15 10 27 -6 15 -14 17 -48 12 -92 -13 -106
-5 -106 65 l0 48 123 3 c106 3 141 2 169 -1z m-352 -30 c0 -28 -1 -29 -32 -21
-18 5 -59 14 -90 20 -32 6 -60 15 -62 19 -3 4 37 9 89 10 l95 2 0 -30z m-183
-22 c6 -6 37 -13 69 -15 33 -2 60 -8 62 -13 2 -5 12 -7 23 -4 15 4 18 2 13
-11 -3 -9 -1 -16 5 -16 6 0 11 -10 11 -22 -1 -21 -2 -21 -11 -5 -13 22 -34 22
-51 -1 -7 -11 -23 -24 -36 -31 -12 -7 -20 -16 -17 -22 11 -16 -7 -10 -21 9
-12 15 -15 15 -24 2 -5 -8 -8 -21 -5 -28 3 -7 1 -11 -4 -7 -5 3 -11 2 -13 -3
-5 -12 -82 -57 -91 -54 -5 1 -6 -2 -3 -7 10 -16 -12 -23 -35 -11 l-20 11 24
32 c14 18 30 33 36 33 6 1 16 2 23 3 9 1 9 4 1 12 -13 13 23 83 38 73 5 -3 6
2 3 10 -3 9 -2 16 3 16 13 0 14 43 0 52 -7 4 -8 8 -1 8 5 0 15 -5 21 -11z
m127 -171 c-3 -4 -14 -8 -25 -8 -11 0 -18 4 -15 8 2 4 14 8 25 8 11 0 17 -4
15 -8z m51 -38 c-1 -17 -7 -36 -15 -43 -10 -10 -12 -7 -6 13 3 14 6 33 6 43 0
9 4 17 8 17 5 0 8 -14 7 -30z m-160 -11 c9 -13 -26 -40 -43 -34 -7 3 -11 1 -8
-4 3 -5 0 -11 -8 -14 -22 -9 -12 24 13 45 27 21 37 22 46 7z m-147 -28 c15 -9
6 -18 -37 -41 l-23 -12 18 31 c20 33 22 35 42 22z m229 1 c15 -10 27 -73 15
-81 -6 -4 -6 -16 -1 -30 7 -18 15 -22 34 -19 26 5 35 -7 35 -48 l0 -24 -247 0
-248 0 60 29 c43 20 65 26 78 19 9 -5 17 -5 16 -1 -4 21 2 33 16 33 8 0 15 4
15 8 0 5 11 14 25 20 19 9 25 9 26 -1 0 -7 3 -6 6 3 8 20 34 39 53 40 8 0 26
12 39 26 13 14 30 23 38 20 8 -3 11 -1 8 4 -7 12 15 13 32 2z m439 -77 c-6
-24 -86 -134 -86 -118 0 7 -13 8 -37 3 -21 -4 -68 -8 -105 -9 l-68 -1 0 44 c0
43 19 74 39 62 5 -3 11 -1 13 4 2 6 11 12 20 13 9 2 22 8 29 14 25 19 117 44
142 38 15 -4 28 -2 33 6 10 17 27 -29 20 -56z m-113 -154 c5 0 5 -6 2 -11 -4
-6 -11 -8 -16 -4 -5 3 -9 2 -8 -3 3 -20 -2 -34 -11 -28 -6 4 -7 -1 -3 -11 5
-14 3 -16 -11 -11 -10 4 -15 3 -11 -3 6 -10 -39 -103 -47 -95 -5 6 0 -75 7
-92 6 -17 -4 -43 -16 -43 -6 0 -20 -9 -32 -21 l-22 -20 -7 38 c-4 21 -7 100
-7 175 l-1 136 88 -2 c48 -2 91 -4 95 -5z m223 -6 c-7 -20 14 -66 27 -58 6 3
7 1 3 -5 -4 -7 -11 -12 -16 -12 -4 0 -37 -18 -71 -39 -145 -90 -217 -131 -229
-131 -9 0 -11 12 -8 43 6 49 83 181 100 170 7 -3 8 -1 4 6 -18 28 15 41 106
41 76 0 89 -2 84 -15z m-476 -456 c0 -12 4 -18 11 -13 7 4 10 1 7 -7 -5 -15
-50 -24 -75 -15 -13 5 -13 8 1 22 9 8 20 12 26 9 6 -4 10 -3 9 2 -3 15 1 23
11 23 6 0 10 -9 10 -21z m-982 -87 c24 -16 25 -16 14 5 -11 20 -10 21 43 18
30 -1 61 -8 69 -14 8 -7 20 -10 27 -6 8 6 7 10 -2 16 -21 13 7 12 31 -1 13 -7
21 -7 25 0 5 8 133 10 397 9 l390 -3 -5 -36 c-2 -20 2 -51 9 -69 16 -39 18
-55 5 -46 -5 3 -12 1 -16 -5 -3 -5 -1 -10 5 -10 6 0 10 -15 10 -32 0 -18 0
-40 1 -48 2 -41 -8 -150 -14 -156 -11 -11 -8 -46 3 -39 18 11 11 -17 -7 -31
-24 -18 -44 -18 -37 0 4 11 -2 14 -25 14 -32 -1 -41 -12 -18 -22 6 -3 -17 -2
-53 1 -36 4 -75 7 -86 6 -16 -1 -23 7 -28 28 -5 27 -26 42 -26 19 0 -5 5 -10
10 -10 6 0 10 -4 10 -9 0 -5 -9 -7 -21 -4 -12 3 -25 0 -29 -7 -12 -20 -170
-23 -170 -4 0 8 -7 14 -15 14 -9 0 -12 -6 -9 -15 8 -20 -10 -19 -31 1 -12 13
-19 14 -28 5 -7 -7 -56 -11 -134 -11 -103 0 -123 2 -123 15 0 12 -15 15 -67
17 -62 1 -64 2 -23 7 25 3 45 8 44 11 0 3 -4 16 -8 30 -5 14 -7 31 -6 39 1 9
-4 12 -14 8 -21 -8 -46 2 -46 18 0 18 -75 -18 -84 -40 -3 -10 -15 -15 -28 -13
-18 2 -24 11 -28 41 -3 21 -9 37 -15 37 -5 0 -10 23 -11 52 -1 37 -6 55 -19
64 -16 12 -16 16 -4 30 11 13 11 18 2 21 -20 7 -15 27 12 53 14 13 25 32 25
42 0 10 8 19 18 19 9 1 4 5 -13 10 -22 6 -17 7 19 3 27 -3 61 -13 74 -22z m75
-429 c-13 -2 -33 -2 -45 0 -13 2 -3 4 22 4 25 0 35 -2 23 -4z m87 -3 c0 -5 -4
-10 -9 -10 -6 0 -13 5 -16 10 -3 6 1 10 9 10 9 0 16 -4 16 -10z"/>
<path d="M4146 6397 c-16 -12 -17 -14 -1 -27 20 -17 41 0 28 24 -7 14 -12 14
-27 3z"/>
<path d="M4293 6194 c-25 -11 -12 -24 23 -24 24 0 34 4 32 13 -5 13 -35 19
-55 11z"/>
<path d="M4760 6190 c0 -5 5 -10 11 -10 5 0 7 5 4 10 -3 6 -8 10 -11 10 -2 0
-4 -4 -4 -10z"/>
<path d="M4430 6181 c0 -5 7 -11 15 -15 8 -3 15 -1 15 3 0 5 -7 11 -15 15 -8
3 -15 1 -15 -3z"/>
<path d="M4070 6032 c0 -10 22 -32 32 -32 4 0 8 9 8 20 0 13 -7 20 -20 20 -11
0 -20 -4 -20 -8z"/>
<path d="M4607 6016 l-24 -26 -11 23 c-10 19 -11 17 -8 -18 3 -37 5 -39 40
-43 20 -2 36 1 36 7 0 6 -6 8 -14 5 -8 -3 -17 -1 -20 5 -8 12 21 41 41 41 8 0
13 5 11 12 -8 22 -27 20 -51 -6z"/>
<path d="M4656 5962 c-2 -4 7 -8 20 -8 13 -1 24 1 24 5 0 9 -38 12 -44 3z"/>
<path d="M4830 5960 c0 -5 5 -10 10 -10 6 0 10 5 10 10 0 6 -4 10 -10 10 -5 0
-10 -4 -10 -10z"/>
<path d="M4883 5963 c9 -2 23 -2 30 0 6 3 -1 5 -18 5 -16 0 -22 -2 -12 -5z"/>
<path d="M4268 5953 c7 -3 16 -2 19 1 4 3 -2 6 -13 5 -11 0 -14 -3 -6 -6z"/>
<path d="M4348 5953 c7 -3 16 -2 19 1 4 3 -2 6 -13 5 -11 0 -14 -3 -6 -6z"/>
<path d="M4398 5953 c7 -3 16 -2 19 1 4 3 -2 6 -13 5 -11 0 -14 -3 -6 -6z"/>
<path d="M4910 5605 c7 -9 15 -13 17 -11 7 7 -7 26 -19 26 -6 0 -6 -6 2 -15z"/>
<path d="M4240 5470 c0 -13 187 -13 195 -1 3 6 -36 10 -95 10 -59 0 -100 -3
-100 -9z"/>
<path d="M4465 5470 c-4 -6 8 -10 29 -10 20 0 36 5 36 10 0 6 -13 10 -29 10
-17 0 -33 -4 -36 -10z"/>
<path d="M4601 5470 c9 -5 28 -6 45 0 27 8 26 8 -16 9 -32 0 -40 -2 -29 -9z"/>
<path d="M4727 5473 c18 -2 50 -2 70 0 21 2 7 4 -32 4 -38 0 -55 -2 -38 -4z"/>
<path d="M4083 5463 c26 -2 68 -2 95 0 26 2 4 3 -48 3 -52 0 -74 -1 -47 -3z"/>
<path d="M2149 5951 c12 -8 51 -4 51 5 0 2 -15 4 -32 4 -23 0 -29 -3 -19 -9z"/>
<path d="M1625 6225 l-30 -15 35 6 c19 4 42 10 50 15 27 15 -22 10 -55 -6z"/>
<path d="M1568 6203 c7 -3 16 -2 19 1 4 3 -2 6 -13 5 -11 0 -14 -3 -6 -6z"/>
<path d="M930 6256 c0 -2 7 -6 15 -10 8 -3 15 -1 15 4 0 6 -7 10 -15 10 -8 0
-15 -2 -15 -4z"/>
<path d="M940 6220 c0 -5 5 -10 11 -10 5 0 7 5 4 10 -3 6 -8 10 -11 10 -2 0
-4 -4 -4 -10z"/>
<path d="M1793 6143 c15 -2 37 -2 50 0 12 2 0 4 -28 4 -27 0 -38 -2 -22 -4z"/>
<path d="M910 6045 c7 -8 16 -15 21 -15 5 0 6 7 3 15 -4 8 -13 15 -21 15 -13
0 -13 -3 -3 -15z"/>
<path d="M2050 4673 c0 -17 9 -41 20 -54 11 -13 18 -17 15 -9 -2 8 -7 28 -9
44 -8 44 -26 57 -26 19z"/>
<path d="M1983 4553 c-17 -6 13 -66 30 -60 17 5 21 35 7 52 -13 16 -17 17 -37
8z"/>
<path d="M873 5433 c9 -2 25 -2 35 0 9 3 1 5 -18 5 -19 0 -27 -2 -17 -5z"/>
<path d="M1155 4940 c-16 -7 -12 -9 18 -9 23 -1 36 3 32 9 -7 12 -23 12 -50 0z"/>
<path d="M4850 4940 c0 -5 5 -10 10 -10 6 0 10 5 10 10 0 6 -4 10 -10 10 -5 0
-10 -4 -10 -10z"/>
<path d="M5080 4920 c0 -5 7 -10 15 -10 8 0 15 5 15 10 0 6 -7 10 -15 10 -8 0
-15 -4 -15 -10z"/>
<path d="M4556 4913 c-11 -11 -6 -23 9 -23 8 0 15 4 15 9 0 13 -16 22 -24 14z"/>
<path d="M4875 4910 c3 -5 31 -10 61 -10 30 0 54 5 54 10 0 6 -27 10 -61 10
-37 0 -58 -4 -54 -10z"/>
<path d="M4615 4769 c-10 -15 3 -25 16 -12 7 7 7 13 1 17 -6 3 -14 1 -17 -5z"/>
<path d="M1125 4318 c-3 -12 -2 -35 2 -50 l8 -27 33 20 c45 29 41 61 -10 74
-23 6 -28 3 -33 -17z"/>
<path d="M305 750 c-4 -6 -2 -17 4 -23 15 -15 25 -2 13 19 -7 12 -11 13 -17 4z"/>
<path d="M270 680 c20 -13 33 -13 25 0 -3 6 -14 10 -23 10 -15 0 -15 -2 -2
-10z"/>
<path d="M357 669 c-4 -15 -11 -20 -22 -15 -11 4 -15 2 -13 -6 7 -19 39 -16
52 4 8 13 7 21 0 28 -8 8 -13 5 -17 -11z"/>
<path d="M284 619 c-3 -6 -1 -15 5 -19 7 -4 11 -13 9 -21 -2 -8 7 -15 19 -17
13 -2 23 -12 25 -24 2 -12 9 -23 16 -26 9 -3 8 8 -5 39 -12 31 -14 44 -5 47 7
2 9 8 6 13 -4 6 -11 6 -19 -1 -9 -8 -14 -6 -19 5 -6 18 -22 20 -32 4z"/>
<path d="M225 610 c-3 -5 1 -10 9 -10 9 0 16 5 16 10 0 6 -4 10 -9 10 -6 0
-13 -4 -16 -10z"/>
<path d="M185 530 c-3 -5 1 -10 10 -10 9 0 13 5 10 10 -3 6 -8 10 -10 10 -2 0
-7 -4 -10 -10z"/>
<path d="M320 492 c0 -19 18 -42 32 -42 14 0 8 20 -12 40 -19 19 -20 19 -20 2z"/>
<path d="M380 445 c-10 -13 -9 -15 9 -15 12 0 21 6 21 15 0 8 -4 15 -9 15 -5
0 -14 -7 -21 -15z"/>
<path d="M850 381 c0 -12 6 -21 15 -21 8 0 15 3 15 6 0 3 -7 12 -15 20 -13 14
-15 13 -15 -5z"/>
<path d="M747 363 c-14 -4 -16 -8 -6 -19 6 -8 19 -14 28 -14 13 0 13 2 2 9 -7
5 -10 14 -7 20 4 6 6 10 4 10 -2 -1 -11 -3 -21 -6z"/>
<path d="M768 308 c9 -9 15 -9 24 0 9 9 7 12 -12 12 -19 0 -21 -3 -12 -12z"/>
<path d="M6089 8978 c-6 -90 13 -145 65 -190 36 -31 53 -34 83 -13 22 16 58
109 69 183 6 38 5 42 -15 42 -16 0 -21 -6 -21 -24 0 -33 -37 -147 -55 -170
-15 -20 -15 -20 -30 0 -37 47 -77 144 -71 169 5 18 2 25 -9 25 -8 0 -16 -10
-16 -22z"/>
<path d="M6438 8813 c6 -2 18 -2 25 0 6 3 1 5 -13 5 -14 0 -19 -2 -12 -5z"/>
<path d="M6848 8813 c6 -2 18 -2 25 0 6 3 1 5 -13 5 -14 0 -19 -2 -12 -5z"/>
<path d="M2108 8803 c6 -2 18 -2 25 0 6 3 1 5 -13 5 -14 0 -19 -2 -12 -5z"/>
<path d="M2168 8803 c7 -3 16 -2 19 1 4 3 -2 6 -13 5 -11 0 -14 -3 -6 -6z"/>
<path d="M2422 8805 c7 -7 1069 -7 1076 0 3 3 -239 5 -538 5 -299 0 -541 -2
-538 -5z"/>
<path d="M3523 8803 c9 -2 25 -2 35 0 9 3 1 5 -18 5 -19 0 -27 -2 -17 -5z"/>
<path d="M3608 8803 c18 -2 45 -2 60 0 15 2 0 4 -33 4 -33 0 -45 -2 -27 -4z"/>
<path d="M4103 8803 c15 -2 37 -2 50 0 12 2 0 4 -28 4 -27 0 -38 -2 -22 -4z"/>
<path d="M4198 8803 c6 -2 18 -2 25 0 6 3 1 5 -13 5 -14 0 -19 -2 -12 -5z"/>
<path d="M4248 8803 c6 -2 18 -2 25 0 6 3 1 5 -13 5 -14 0 -19 -2 -12 -5z"/>
<path d="M4403 8803 c20 -2 54 -2 75 0 20 2 3 4 -38 4 -41 0 -58 -2 -37 -4z"/>
<path d="M4538 8803 c7 -3 16 -2 19 1 4 3 -2 6 -13 5 -11 0 -14 -3 -6 -6z"/>
<path d="M4608 8803 c12 -2 30 -2 40 0 9 3 -1 5 -23 4 -22 0 -30 -2 -17 -4z"/>
<path d="M4733 8803 c9 -2 25 -2 35 0 9 3 1 5 -18 5 -19 0 -27 -2 -17 -5z"/>
<path d="M4872 8803 c37 -2 100 -2 140 0 40 1 10 3 -67 3 -77 0 -110 -1 -73
-3z"/>
<path d="M5133 8803 c15 -2 37 -2 50 0 12 2 0 4 -28 4 -27 0 -38 -2 -22 -4z"/>
<path d="M1548 8793 c6 -2 18 -2 25 0 6 3 1 5 -13 5 -14 0 -19 -2 -12 -5z"/>
<path d="M568 8783 c7 -3 16 -2 19 1 4 3 -2 6 -13 5 -11 0 -14 -3 -6 -6z"/>
<path d="M658 8783 c7 -3 16 -2 19 1 4 3 -2 6 -13 5 -11 0 -14 -3 -6 -6z"/>
<path d="M2820 8340 l-215 -6 293 -2 c160 -1 292 2 292 6 0 9 -66 9 -370 2z"/>
<path d="M4458 8343 c7 -3 16 -2 19 1 4 3 -2 6 -13 5 -11 0 -14 -3 -6 -6z"/>
<path d="M4603 8343 c9 -2 23 -2 30 0 6 3 -1 5 -18 5 -16 0 -22 -2 -12 -5z"/>
<path d="M4818 8343 c18 -2 45 -2 60 0 15 2 0 4 -33 4 -33 0 -45 -2 -27 -4z"/>
<path d="M5018 8343 c7 -3 16 -2 19 1 4 3 -2 6 -13 5 -11 0 -14 -3 -6 -6z"/>
<path d="M5113 8343 c9 -2 23 -2 30 0 6 3 -1 5 -18 5 -16 0 -22 -2 -12 -5z"/>
<path d="M2508 8333 c18 -2 45 -2 60 0 15 2 0 4 -33 4 -33 0 -45 -2 -27 -4z"/>
<path d="M8528 7893 c7 -3 16 -2 19 1 4 3 -2 6 -13 5 -11 0 -14 -3 -6 -6z"/>
<path d="M1108 7863 c12 -2 30 -2 40 0 9 3 -1 5 -23 4 -22 0 -30 -2 -17 -4z"/>
<path d="M2598 7863 c7 -3 16 -2 19 1 4 3 -2 6 -13 5 -11 0 -14 -3 -6 -6z"/>
<path d="M5968 7423 c7 -3 16 -2 19 1 4 3 -2 6 -13 5 -11 0 -14 -3 -6 -6z"/>
<path d="M6098 7423 c7 -3 16 -2 19 1 4 3 -2 6 -13 5 -11 0 -14 -3 -6 -6z"/>
<path d="M8048 7423 c7 -3 16 -2 19 1 4 3 -2 6 -13 5 -11 0 -14 -3 -6 -6z"/>
<path d="M8098 7423 c12 -2 32 -2 45 0 12 2 2 4 -23 4 -25 0 -35 -2 -22 -4z"/>
<path d="M5058 7413 c12 -2 32 -2 45 0 12 2 2 4 -23 4 -25 0 -35 -2 -22 -4z"/>
<path d="M5143 7413 c9 -2 25 -2 35 0 9 3 1 5 -18 5 -19 0 -27 -2 -17 -5z"/>
<path d="M5268 7413 c6 -2 18 -2 25 0 6 3 1 5 -13 5 -14 0 -19 -2 -12 -5z"/>
<path d="M5333 7413 c9 -2 23 -2 30 0 6 3 -1 5 -18 5 -16 0 -22 -2 -12 -5z"/>
<path d="M4393 7403 c9 -2 23 -2 30 0 6 3 -1 5 -18 5 -16 0 -22 -2 -12 -5z"/>
<path d="M1568 7393 c6 -2 18 -2 25 0 6 3 1 5 -13 5 -14 0 -19 -2 -12 -5z"/>
<path d="M348 7383 c7 -3 16 -2 19 1 4 3 -2 6 -13 5 -11 0 -14 -3 -6 -6z"/>
<path d="M5735 6949 c-24 -5 -20 -7 23 -8 28 0 52 1 52 3 0 8 -47 11 -75 5z"/>
<path d="M6288 6953 c7 -3 16 -2 19 1 4 3 -2 6 -13 5 -11 0 -14 -3 -6 -6z"/>
<path d="M6378 6953 c6 -2 18 -2 25 0 6 3 1 5 -13 5 -14 0 -19 -2 -12 -5z"/>
<path d="M6583 6953 c9 -2 23 -2 30 0 6 3 -1 5 -18 5 -16 0 -22 -2 -12 -5z"/>
<path d="M6648 6953 c6 -2 18 -2 25 0 6 3 1 5 -13 5 -14 0 -19 -2 -12 -5z"/>
<path d="M6718 6953 c12 -2 32 -2 45 0 12 2 2 4 -23 4 -25 0 -35 -2 -22 -4z"/>
<path d="M7728 6953 c7 -3 16 -2 19 1 4 3 -2 6 -13 5 -11 0 -14 -3 -6 -6z"/>
<path d="M8218 6953 c7 -3 16 -2 19 1 4 3 -2 6 -13 5 -11 0 -14 -3 -6 -6z"/>
<path d="M8273 6953 c9 -2 25 -2 35 0 9 3 1 5 -18 5 -19 0 -27 -2 -17 -5z"/>
<path d="M5205 6939 c-42 -5 -37 -6 35 -7 47 -1 91 2 97 6 15 9 -58 10 -132 1z"/>
<path d="M5418 6943 c28 -2 76 -2 105 0 28 2 5 3 -53 3 -58 0 -81 -1 -52 -3z"/>
<path d="M5638 6943 c12 -2 30 -2 40 0 9 3 -1 5 -23 4 -22 0 -30 -2 -17 -4z"/>
<path d="M4353 6933 c20 -2 54 -2 75 0 20 2 3 4 -38 4 -41 0 -58 -2 -37 -4z"/>
<path d="M4518 6933 c23 -2 61 -2 85 0 23 2 4 4 -43 4 -47 0 -66 -2 -42 -4z"/>
<path d="M4868 6933 c7 -3 16 -2 19 1 4 3 -2 6 -13 5 -11 0 -14 -3 -6 -6z"/>
<path d="M4958 6933 c6 -2 18 -2 25 0 6 3 1 5 -13 5 -14 0 -19 -2 -12 -5z"/>
<path d="M5083 6933 c15 -2 37 -2 50 0 12 2 0 4 -28 4 -27 0 -38 -2 -22 -4z"/>
<path d="M2958 6923 c12 -2 32 -2 45 0 12 2 2 4 -23 4 -25 0 -35 -2 -22 -4z"/>
<path d="M3168 6923 c6 -2 18 -2 25 0 6 3 1 5 -13 5 -14 0 -19 -2 -12 -5z"/>
<path d="M3248 6923 c6 -2 18 -2 25 0 6 3 1 5 -13 5 -14 0 -19 -2 -12 -5z"/>
<path d="M648 6913 c6 -2 18 -2 25 0 6 3 1 5 -13 5 -14 0 -19 -2 -12 -5z"/>
<path d="M698 6913 c7 -3 16 -2 19 1 4 3 -2 6 -13 5 -11 0 -14 -3 -6 -6z"/>
<path d="M813 6913 c43 -2 110 -2 150 0 40 1 5 3 -78 3 -82 0 -115 -2 -72 -3z"/>
<path d="M1053 6913 c9 -2 25 -2 35 0 9 3 1 5 -18 5 -19 0 -27 -2 -17 -5z"/>
<path d="M1148 6913 c17 -2 47 -2 65 0 17 2 3 4 -33 4 -36 0 -50 -2 -32 -4z"/>
<path d="M68 6903 c28 -2 76 -2 105 0 28 2 5 3 -53 3 -58 0 -81 -1 -52 -3z"/>
<path d="M238 6903 c7 -3 16 -2 19 1 4 3 -2 6 -13 5 -11 0 -14 -3 -6 -6z"/>
<path d="M358 6903 c18 -2 45 -2 60 0 15 2 0 4 -33 4 -33 0 -45 -2 -27 -4z"/>
<path d="M5350 6820 c-36 -8 -30 -10 30 -13 20 -1 38 3 40 8 6 13 -25 15 -70
5z"/>
<path d="M5720 6820 c-12 -8 -10 -10 8 -10 13 0 20 4 17 10 -7 12 -6 12 -25 0z"/>
<path d="M7140 6806 c0 -8 5 -18 10 -21 6 -3 10 1 10 9 0 8 -4 18 -10 21 -5 3
-10 -1 -10 -9z"/>
<path d="M4430 6791 c23 -13 150 -24 150 -13 0 11 -58 22 -120 22 -30 -1 -40
-3 -30 -9z"/>
<path d="M5088 6793 c-21 -5 -24 -23 -4 -23 7 0 27 7 42 15 29 15 29 15 4 14
-14 -1 -33 -3 -42 -6z"/>
<path d="M7870 6776 c0 -8 6 -16 14 -19 10 -4 12 0 9 14 -6 22 -23 26 -23 5z"/>
<path d="M3628 6733 c17 -2 47 -2 65 0 17 2 3 4 -33 4 -36 0 -50 -2 -32 -4z"/>
<path d="M4714 6689 c-65 -34 -85 -49 -66 -49 16 0 130 59 138 71 10 16 -12 9
-72 -22z"/>
<path d="M7887 6693 c-4 -3 -7 -14 -7 -24 0 -12 -5 -16 -14 -13 -8 3 -17 1
-21 -5 -3 -6 -15 -11 -25 -11 -10 0 -20 -4 -22 -9 -3 -8 -194 -87 -258 -106
-14 -4 -69 -25 -123 -46 -54 -22 -146 -52 -205 -68 -59 -15 -116 -32 -127 -37
-18 -7 -19 -6 -6 9 8 10 12 20 9 23 -3 2 -12 -6 -21 -19 -19 -30 -94 -70 -118
-64 -26 7 -53 -27 -45 -56 5 -22 38 -53 59 -55 11 -1 67 -72 67 -84 0 -5 -4
-6 -10 -3 -6 4 -7 -1 -3 -11 5 -12 8 -14 11 -5 3 9 13 4 33 -15 26 -25 27 -29
13 -48 -8 -12 -37 -37 -64 -56 -27 -19 -78 -56 -112 -82 -85 -63 -192 -123
-184 -103 3 8 1 15 -4 15 -5 0 -12 -11 -16 -25 -3 -14 -12 -25 -19 -25 -28 0
-37 -27 -26 -82 6 -29 13 -129 16 -223 2 -93 10 -219 16 -280 6 -60 13 -159
14 -220 4 -145 12 -219 30 -279 8 -27 15 -62 15 -78 0 -18 5 -28 14 -28 17 0
13 42 -11 130 -9 30 -17 100 -19 155 -4 108 0 114 15 20 5 -33 19 -109 30
-170 25 -137 25 -142 1 -148 -13 -3 -18 -11 -14 -20 3 -8 -2 -17 -10 -20 -26
-10 -19 -30 9 -25 14 3 25 2 25 -3 0 -4 7 -14 15 -22 13 -14 20 -13 57 5 32
16 62 20 130 21 48 0 88 4 88 9 0 6 -30 7 -71 5 -79 -6 -79 -1 1 33 76 31 224
106 290 145 62 38 221 103 354 146 49 16 91 29 93 29 8 0 2 -44 -11 -68 -18
-37 -28 -82 -18 -82 13 0 52 98 52 131 0 24 6 30 48 45 26 9 103 39 171 66
l123 50 23 -22 c22 -21 22 -21 36 -1 13 19 30 20 404 27 215 3 392 8 394 10 5
5 -559 8 -574 3 -18 -5 -169 -7 -202 -2 -38 6 -45 35 -13 55 21 14 26 33 10
43 -5 3 -18 0 -29 -7 -25 -15 -28 -12 -36 32 -3 19 -9 44 -14 55 -10 21 -71
267 -71 284 0 6 50 12 123 14 l122 3 -127 2 c-146 2 -127 -13 -148 122 -6 41
-20 107 -30 145 -10 39 -22 100 -26 138 l-6 67 26 0 c16 0 25 4 21 10 -4 6
-12 10 -18 9 -33 -4 -38 2 -37 49 0 26 -2 129 -5 229 l-6 182 23 6 c13 2 39 6
58 8 22 2 14 4 -22 5 l-58 2 0 51 c0 41 3 50 15 45 8 -3 15 -1 15 3 0 5 -5 11
-10 13 -7 2 -6 15 2 36 12 31 11 35 -11 53 -25 20 -34 23 -44 12z m-14 -99 c3
-4 0 -16 -8 -28 -8 -11 -15 -35 -15 -53 0 -32 0 -32 -57 -36 l-58 -3 63 -2 64
-2 -5 -96 c-4 -72 -1 -106 10 -132 15 -36 19 -136 7 -174 -4 -13 -2 -18 4 -14
6 4 10 -21 10 -68 0 -41 3 -82 6 -92 3 -11 10 -58 15 -105 6 -56 17 -99 30
-120 16 -26 21 -51 21 -106 0 -39 4 -74 9 -77 5 -3 9 -29 9 -56 1 -28 4 -56 8
-62 5 -7 9 -19 9 -28 3 -27 28 -89 36 -85 10 7 52 -156 42 -165 -4 -5 -62 -31
-128 -58 -195 -81 -269 -114 -475 -214 -107 -52 -213 -101 -235 -108 -22 -7
-83 -34 -135 -60 -52 -26 -112 -53 -133 -60 -24 -7 -37 -17 -34 -25 3 -7 -10
-19 -30 -29 -30 -14 -35 -15 -30 -2 4 9 2 18 -3 21 -16 10 -12 38 4 32 8 -3
20 1 27 9 10 12 9 16 -9 21 -17 4 -22 13 -22 41 0 48 -11 33 -25 -34 l-11 -55
-13 99 c-9 73 -10 105 -2 120 14 27 14 32 -3 32 -12 0 -13 7 -6 31 11 38 5 52
-21 44 -16 -5 -19 -1 -19 22 0 15 -3 38 -6 51 -5 16 -2 22 9 22 9 0 17 -13 21
-35 11 -57 31 -46 42 23 l6 41 -36 -10 c-42 -12 -56 -6 -56 24 0 16 3 18 12 9
7 -7 18 -12 25 -12 18 0 16 29 -3 37 -8 3 -13 11 -10 18 9 24 -8 26 -21 3 -11
-21 -12 -20 -13 22 0 25 -4 61 -9 80 -5 19 -12 82 -16 140 -3 58 -8 123 -11
145 -3 22 -2 86 2 143 5 95 7 102 25 97 15 -5 19 -1 19 18 0 16 13 37 38 58
35 31 205 145 272 181 17 10 29 22 26 26 -3 5 15 7 39 5 36 -3 46 -1 54 16 9
16 7 23 -14 40 -21 16 -24 25 -19 48 4 16 3 25 -2 20 -5 -5 -9 -14 -9 -20 0
-29 -26 -11 -66 45 -65 93 -63 107 27 151 69 34 108 49 75 28 -10 -6 -10 -10
-1 -16 7 -4 13 1 17 13 5 21 49 46 64 37 5 -4 9 -2 9 3 0 5 46 28 102 52 77
33 114 43 148 42 29 -2 40 1 31 7 -7 5 -23 7 -35 4 -42 -9 8 14 113 52 57 20
122 45 145 55 41 19 97 26 109 14z m-688 -218 c-27 -12 -68 -31 -90 -40 -22
-10 -52 -24 -67 -32 -16 -9 -28 -11 -28 -5 0 6 -8 8 -17 5 -49 -14 73 43 142
67 96 34 130 37 60 5z m702 -33 c-3 -10 -5 -4 -5 12 0 17 2 24 5 18 2 -7 2
-21 0 -30z m143 -1313 c0 -5 -8 -10 -17 -10 -15 0 -16 2 -3 10 19 12 20 12 20
0z m60 0 c0 -5 -7 -10 -16 -10 -8 0 -12 5 -9 10 3 6 10 10 16 10 5 0 9 -4 9
-10z m-84 -37 c-16 -8 -41 -19 -55 -23 -14 -5 -71 -25 -125 -44 -55 -20 -107
-36 -115 -35 -23 1 100 57 127 58 12 1 22 5 22 10 0 11 85 45 97 38 4 -2 17
-1 28 4 36 14 51 9 21 -8z m-321 -113 c-3 -5 -12 -10 -18 -10 -7 0 -6 4 3 10
19 12 23 12 15 0z"/>
<path d="M7760 6563 c-14 -7 -18 -13 -10 -13 17 0 47 17 40 23 -3 2 -16 -2
-30 -10z"/>
<path d="M7570 6470 c0 -3 25 -6 55 -6 38 0 49 3 35 8 -23 8 -90 7 -90 -2z"/>
<path d="M7638 6283 c-30 -8 -20 -24 10 -17 34 8 53 24 27 23 -11 -1 -28 -3
-37 -6z"/>
<path d="M7467 6265 c-8 -20 3 -24 33 -13 20 7 22 11 10 18 -22 14 -37 12 -43
-5z"/>
<path d="M7048 6264 c-3 -3 -3 -14 -1 -25 4 -15 8 -17 14 -8 6 10 12 9 28 -5
16 -14 21 -16 21 -5 -1 32 -44 62 -62 43z"/>
<path d="M7250 6257 c0 -10 9 -14 25 -13 30 1 27 20 -3 24 -14 2 -22 -2 -22
-11z"/>
<path d="M7127 6244 c-4 -4 -7 -17 -7 -28 1 -19 1 -20 11 -3 11 19 8 43 -4 31z"/>
<path d="M7825 6084 c11 -8 19 -17 18 -19 -7 -13 -2 -18 9 -7 14 14 -6 42 -31
42 -13 -1 -13 -3 4 -16z"/>
<path d="M7137 5968 c-2 -13 -8 -32 -12 -43 -6 -17 -4 -17 14 4 21 23 29 61
12 61 -5 0 -11 -10 -14 -22z"/>
<path d="M7213 5983 c9 -2 23 -2 30 0 6 3 -1 5 -18 5 -16 0 -22 -2 -12 -5z"/>
<path d="M7383 5983 c9 -2 25 -2 35 0 9 3 1 5 -18 5 -19 0 -27 -2 -17 -5z"/>
<path d="M7518 5983 c34 -2 88 -2 120 0 31 2 3 3 -63 3 -66 0 -92 -1 -57 -3z"/>
<path d="M7733 5983 c20 -2 54 -2 75 0 20 2 3 4 -38 4 -41 0 -58 -2 -37 -4z"/>
<path d="M6906 5821 c-4 -5 3 -15 15 -21 28 -15 34 -7 10 14 -12 11 -21 13
-25 7z"/>
<path d="M7146 5758 c-18 -25 -20 -38 -8 -38 10 0 35 50 28 57 -2 2 -11 -6
-20 -19z"/>
<path d="M6740 5683 c0 -5 4 -14 9 -22 5 -8 4 -26 -4 -45 -11 -25 -11 -34 -1
-49 16 -21 26 -22 26 -3 0 8 10 22 22 30 17 12 19 16 6 21 -8 3 -21 21 -28 40
-12 31 -30 48 -30 28z"/>
<path d="M7762 5643 c-20 -38 -23 -79 -8 -115 13 -30 19 -35 38 -30 17 5 19 7
6 10 -29 6 -43 57 -28 103 14 41 8 64 -8 32z"/>
<path d="M7151 5568 c-1 -20 4 -40 9 -43 12 -7 12 32 0 60 -7 16 -9 13 -9 -17z"/>
<path d="M7540 5550 c0 -5 5 -10 11 -10 5 0 7 5 4 10 -3 6 -8 10 -11 10 -2 0
-4 -4 -4 -10z"/>
<path d="M7560 5512 c0 -4 -28 -9 -62 -9 -104 -2 -108 -6 -13 -13 67 -4 96 -2
115 8 14 7 17 11 8 8 -10 -3 -20 -1 -23 4 -7 12 -25 13 -25 2z"/>
<path d="M6758 5478 c-5 -30 8 -68 23 -68 4 0 7 11 7 25 0 14 -4 25 -9 25 -5
0 -9 5 -9 10 0 6 6 10 14 10 8 0 18 5 22 12 5 8 2 9 -9 5 -10 -3 -17 -2 -17 3
0 25 -18 6 -22 -22z"/>
<path d="M7863 5503 c9 -2 25 -2 35 0 9 3 1 5 -18 5 -19 0 -27 -2 -17 -5z"/>
<path d="M6728 5493 c7 -3 16 -2 19 1 4 3 -2 6 -13 5 -11 0 -14 -3 -6 -6z"/>
<path d="M7013 5493 c9 -2 25 -2 35 0 9 3 1 5 -18 5 -19 0 -27 -2 -17 -5z"/>
<path d="M7168 5493 c6 -2 18 -2 25 0 6 3 1 5 -13 5 -14 0 -19 -2 -12 -5z"/>
<path d="M7303 5493 c15 -2 37 -2 50 0 12 2 0 4 -28 4 -27 0 -38 -2 -22 -4z"/>
<path d="M7167 5341 c-3 -15 -2 -41 3 -57 l8 -29 1 35 c1 19 4 45 7 58 4 12 2
22 -4 22 -5 0 -12 -13 -15 -29z"/>
<path d="M6750 5352 c0 -5 3 -12 8 -16 4 -4 8 -12 8 -17 1 -5 2 -13 3 -19 0
-5 6 -10 11 -10 17 0 12 57 -6 64 -21 8 -24 8 -24 -2z"/>
<path d="M7756 5263 c-13 -81 2 -183 27 -183 4 0 5 10 0 23 -4 12 -7 61 -6
110 1 89 -10 116 -21 50z"/>
<path d="M6777 5204 c-4 -12 -5 -29 -1 -38 9 -23 34 -20 34 4 0 11 -4 20 -9
20 -5 0 -11 8 -13 18 -4 15 -5 14 -11 -4z"/>
<path d="M7186 5131 c-20 -21 -26 -35 -21 -48 6 -16 8 -16 16 5 5 13 16 30 24
38 13 14 20 34 12 34 -2 0 -16 -13 -31 -29z"/>
<path d="M7570 5010 c-12 -8 -9 -10 13 -10 16 0 26 4 22 10 -8 12 -16 12 -35
0z"/>
<path d="M7663 5013 c15 -2 37 -2 50 0 12 2 0 4 -28 4 -27 0 -38 -2 -22 -4z"/>
<path d="M7778 5013 c6 -2 18 -2 25 0 6 3 1 5 -13 5 -14 0 -19 -2 -12 -5z"/>
<path d="M7838 5013 c7 -3 16 -2 19 1 4 3 -2 6 -13 5 -11 0 -14 -3 -6 -6z"/>
<path d="M6866 5002 c-5 -8 675 -4 683 4 2 2 -149 4 -337 4 -187 0 -343 -4
-346 -8z"/>
<path d="M6837 4825 c3 -49 9 -99 14 -110 10 -25 3 80 -10 150 -8 41 -9 33 -4
-40z"/>
<path d="M7200 4877 c0 -8 -7 -28 -16 -45 -17 -36 -16 -73 4 -80 9 -3 11 3 6
22 -4 17 0 35 10 51 18 27 21 65 6 65 -5 0 -10 -6 -10 -13z"/>
<path d="M10574 6606 c-7 -30 -24 -38 -159 -77 -60 -18 -138 -43 -173 -55 -34
-13 -99 -34 -145 -45 -45 -12 -124 -41 -175 -66 -72 -34 -96 -51 -110 -76 -35
-67 -98 -161 -148 -221 -28 -33 -59 -77 -69 -96 -10 -19 -21 -37 -24 -40 -39
-32 -48 -80 -15 -80 8 0 13 -3 13 -7 -4 -27 3 -53 15 -53 17 0 15 -176 -4
-298 -7 -45 -10 -106 -7 -135 13 -119 27 -212 36 -241 5 -17 12 -92 16 -166 4
-74 13 -157 20 -185 8 -27 17 -74 20 -102 6 -43 11 -53 25 -53 26 0 32 -14 20
-44 -6 -17 -6 -26 0 -26 6 0 10 3 10 8 0 4 17 18 38 32 20 13 60 41 87 61 28
20 92 53 142 73 114 44 315 148 405 209 36 25 90 53 120 62 29 10 94 37 144
60 120 56 119 49 58 280 -43 160 -67 276 -88 415 -8 52 -19 113 -26 135 -8 27
-13 138 -14 330 -2 160 -6 305 -11 323 -6 26 -5 32 8 32 26 0 41 37 23 55 -20
20 -25 19 -32 -9z m-26 -83 c5 -10 11 -40 13 -68 3 -53 4 -80 0 -318 -2 -160
3 -219 24 -312 8 -33 17 -94 20 -135 4 -41 15 -109 26 -150 78 -314 100 -413
95 -426 -3 -8 -32 -26 -63 -40 -32 -14 -69 -31 -83 -38 -14 -8 -49 -21 -79
-31 -29 -9 -83 -38 -120 -63 -85 -58 -302 -171 -408 -212 -46 -17 -104 -47
-130 -66 -73 -51 -104 -68 -102 -52 2 20 -12 58 -22 58 -5 0 -9 -5 -9 -12 0
-7 -3 -8 -9 -2 -10 11 -27 92 -46 229 -21 147 -21 145 18 146 l32 1 -30 7
c-26 5 -31 12 -36 46 -4 22 -12 69 -19 105 -34 192 -34 197 -17 318 14 102 16
181 9 335 -1 26 -6 36 -14 31 -7 -5 -8 -3 -2 7 5 8 9 25 10 39 3 35 21 80 34
80 5 0 10 5 10 11 0 7 20 35 44 63 24 28 55 74 69 101 36 68 102 136 168 173
29 17 113 47 184 68 72 20 139 41 150 47 30 16 227 75 252 76 12 1 26 -7 31
-16z"/>
<path d="M9638 5523 c7 -3 16 -2 19 1 4 3 -2 6 -13 5 -11 0 -14 -3 -6 -6z"/>
<path d="M10463 5043 c9 -2 23 -2 30 0 6 3 -1 5 -18 5 -16 0 -22 -2 -12 -5z"/>
<path d="M10518 5043 c6 -2 18 -2 25 0 6 3 1 5 -13 5 -14 0 -19 -2 -12 -5z"/>
<path d="M9728 5033 c12 -2 32 -2 45 0 12 2 2 4 -23 4 -25 0 -35 -2 -22 -4z"/>
<path d="M9873 5033 c9 -2 23 -2 30 0 6 3 -1 5 -18 5 -16 0 -22 -2 -12 -5z"/>
<path d="M4515 6595 c-16 -7 -41 -18 -55 -23 l-25 -11 28 0 c29 -1 87 27 87
41 0 10 2 10 -35 -7z"/>
<path d="M6679 6479 c-21 -12 16 -59 41 -52 11 3 20 11 20 18 0 7 5 15 10 17
6 2 -5 8 -24 14 -20 6 -41 7 -47 3z"/>
<path d="M8560 6480 c0 -5 18 -10 41 -10 24 0 38 4 34 10 -3 6 -22 10 -41 10
-19 0 -34 -4 -34 -10z"/>
<path d="M8928 6483 c12 -2 32 -2 45 0 12 2 2 4 -23 4 -25 0 -35 -2 -22 -4z"/>
<path d="M9143 6483 c48 -2 126 -2 175 0 48 1 8 3 -88 3 -96 0 -136 -2 -87 -3z"/>
<path d="M9473 6483 c32 -2 81 -2 110 0 29 2 3 3 -58 3 -60 0 -84 -1 -52 -3z"/>
<path d="M9733 6483 c15 -2 39 -2 55 0 15 2 2 4 -28 4 -30 0 -43 -2 -27 -4z"/>
<path d="M9883 6483 c15 -2 37 -2 50 0 12 2 0 4 -28 4 -27 0 -38 -2 -22 -4z"/>
<path d="M10658 6483 c12 -2 30 -2 40 0 9 3 -1 5 -23 4 -22 0 -30 -2 -17 -4z"/>
<path d="M2710 6456 c-41 -13 -91 -22 -110 -21 -31 2 -31 2 -5 -3 28 -5 27 -6
-20 -18 l-50 -12 53 -1 c33 -1 62 5 77 15 15 10 47 16 78 17 35 0 44 2 27 7
-22 5 -23 7 -7 13 10 4 28 7 40 7 12 0 29 5 37 10 28 18 -41 10 -120 -14z"/>
<path d="M8143 6473 c59 -2 155 -2 215 0 59 1 10 3 -108 3 -118 0 -167 -2
-107 -3z"/>
<path d="M8493 6473 c9 -2 23 -2 30 0 6 3 -1 5 -18 5 -16 0 -22 -2 -12 -5z"/>
<path d="M6513 6463 c26 -2 68 -2 95 0 26 2 4 3 -48 3 -52 0 -74 -1 -47 -3z"/>
<path d="M6808 6463 c23 -2 59 -2 80 0 20 2 1 4 -43 4 -44 0 -61 -2 -37 -4z"/>
<path d="M6948 6463 c7 -3 16 -2 19 1 4 3 -2 6 -13 5 -11 0 -14 -3 -6 -6z"/>
<path d="M7048 6463 c12 -2 30 -2 40 0 9 3 -1 5 -23 4 -22 0 -30 -2 -17 -4z"/>
<path d="M7147 6463 c18 -2 50 -2 70 0 21 2 7 4 -32 4 -38 0 -55 -2 -38 -4z"/>
<path d="M7303 6463 c9 -2 25 -2 35 0 9 3 1 5 -18 5 -19 0 -27 -2 -17 -5z"/>
<path d="M4583 6443 c9 -2 25 -2 35 0 9 3 1 5 -18 5 -19 0 -27 -2 -17 -5z"/>
<path d="M643 6430 c-193 -3 -354 -7 -356 -10 -3 -3 157 -4 356 -2 199 1 404
2 456 2 52 0 92 2 89 5 -8 9 -176 10 -545 5z"/>
<path d="M1230 6430 c0 -5 7 -7 15 -4 8 4 15 8 15 10 0 2 -7 4 -15 4 -8 0 -15
-4 -15 -10z"/>
<path d="M2808 6433 c7 -3 16 -2 19 1 4 3 -2 6 -13 5 -11 0 -14 -3 -6 -6z"/>
<path d="M27 6413 c18 -2 48 -2 66 0 17 2 3 4 -33 4 -36 0 -50 -2 -33 -4z"/>
<path d="M163 6413 c9 -2 25 -2 35 0 9 3 1 5 -18 5 -19 0 -27 -2 -17 -5z"/>
<path d="M2763 6413 c15 -2 37 -2 50 0 12 2 0 4 -28 4 -27 0 -38 -2 -22 -4z"/>
<path d="M2417 6393 c18 -2 50 -2 70 0 21 2 7 4 -32 4 -38 0 -55 -2 -38 -4z"/>
<path d="M5735 6390 c3 -5 8 -10 11 -10 2 0 4 5 4 10 0 6 -5 10 -11 10 -5 0
-7 -4 -4 -10z"/>
<path d="M80 6369 c0 -5 9 -9 20 -9 11 0 20 2 20 4 0 2 -9 6 -20 9 -11 3 -20
1 -20 -4z"/>
<path d="M138 6363 c7 -3 16 -2 19 1 4 3 -2 6 -13 5 -11 0 -14 -3 -6 -6z"/>
<path d="M6660 6361 c0 -5 5 -13 10 -16 6 -3 10 -2 10 4 0 5 -4 13 -10 16 -5
3 -10 2 -10 -4z"/>
<path d="M703 6343 c15 -2 37 -2 50 0 12 2 0 4 -28 4 -27 0 -38 -2 -22 -4z"/>
<path d="M5340 6320 c0 -5 5 -10 11 -10 5 0 7 5 4 10 -3 6 -8 10 -11 10 -2 0
-4 -4 -4 -10z"/>
<path d="M6671 6304 c0 -11 3 -14 6 -6 3 7 2 16 -1 19 -3 4 -6 -2 -5 -13z"/>
<path d="M8200 6300 c-52 -3 -90 -8 -83 -13 14 -9 167 -7 183 3 21 13 -2 15
-100 10z"/>
<path d="M8345 6299 c-25 -5 -21 -7 23 -8 28 0 52 2 52 7 0 9 -37 10 -75 1z"/>
<path d="M8455 6300 c-3 -5 -1 -10 4 -10 6 0 11 5 11 10 0 6 -2 10 -4 10 -3 0
-8 -4 -11 -10z"/>
<path d="M5155 6280 c-39 -7 -41 -34 -2 -33 49 2 53 3 73 19 18 15 18 15 -8
11 -15 -2 -29 -1 -30 2 -2 4 -16 4 -33 1z"/>
<path d="M5255 6280 c-7 -12 2 -12 30 0 19 8 19 9 -2 9 -12 1 -25 -3 -28 -9z"/>
<path d="M5030 6241 c0 -10 19 -25 25 -20 1 2 -3 10 -11 17 -8 7 -14 8 -14 3z"/>
<path d="M6715 6220 c-10 -16 3 -29 25 -23 24 6 26 19 4 27 -21 8 -22 8 -29
-4z"/>
<path d="M6470 6150 c-11 -7 -7 -10 17 -10 17 0 35 5 38 10 8 13 -35 13 -55 0z"/>
<path d="M312 6133 c32 -2 84 -2 115 0 32 2 6 3 -57 3 -63 0 -89 -1 -58 -3z"/>
<path d="M3740 6116 c-31 -7 -38 -11 -24 -13 26 -5 92 11 79 18 -6 3 -30 1
-55 -5z"/>
<path d="M3310 6060 c-20 -6 -21 -8 -5 -8 11 -1 38 3 60 7 l40 9 -35 0 c-19 0
-46 -4 -60 -8z"/>
<path d="M6670 6061 c0 -6 5 -13 10 -16 6 -3 10 1 10 9 0 9 -4 16 -10 16 -5 0
-10 -4 -10 -9z"/>
<path d="M2693 6043 c-3 -10 -9 -22 -12 -28 -3 -5 5 -3 18 5 24 16 29 32 12
38 -6 2 -14 -5 -18 -15z"/>
<path d="M2515 6020 c-19 -8 -19 -9 3 -9 12 -1 22 4 22 9 0 6 -1 10 -2 9 -2 0
-12 -4 -23 -9z"/>
<path d="M6667 6008 c5 -7 10 -24 11 -37 1 -29 5 -33 25 -25 9 3 15 14 14 24
-1 11 -3 17 -6 15 -2 -3 -10 4 -18 15 -8 11 -19 20 -25 20 -7 0 -7 -4 -1 -12z"/>
<path d="M9053 6003 c15 -2 39 -2 55 0 15 2 2 4 -28 4 -30 0 -43 -2 -27 -4z"/>
<path d="M9168 6003 c18 -2 45 -2 60 0 15 2 0 4 -33 4 -33 0 -45 -2 -27 -4z"/>
<path d="M9283 6003 c9 -2 23 -2 30 0 6 3 -1 5 -18 5 -16 0 -22 -2 -12 -5z"/>
<path d="M8088 5993 c6 -2 18 -2 25 0 6 3 1 5 -13 5 -14 0 -19 -2 -12 -5z"/>
<path d="M8143 5994 c7 -7 269 -5 276 1 2 3 -60 5 -139 5 -79 0 -141 -3 -137
-6z"/>
<path d="M8458 5993 c18 -2 45 -2 60 0 15 2 0 4 -33 4 -33 0 -45 -2 -27 -4z"/>
<path d="M8583 5993 c20 -2 54 -2 75 0 20 2 3 4 -38 4 -41 0 -58 -2 -37 -4z"/>
<path d="M6940 5980 c0 -5 4 -10 9 -10 6 0 13 5 16 10 3 6 -1 10 -9 10 -9 0
-16 -4 -16 -10z"/>
<path d="M6088 5973 c12 -2 30 -2 40 0 9 3 -1 5 -23 4 -22 0 -30 -2 -17 -4z"/>
<path d="M6183 5973 c20 -2 54 -2 75 0 20 2 3 4 -38 4 -41 0 -58 -2 -37 -4z"/>
<path d="M6328 5973 c7 -3 16 -2 19 1 4 3 -2 6 -13 5 -11 0 -14 -3 -6 -6z"/>
<path d="M6458 5973 c7 -3 16 -2 19 1 4 3 -2 6 -13 5 -11 0 -14 -3 -6 -6z"/>
<path d="M2938 5959 c-8 -6 1 -9 25 -9 20 0 37 2 37 4 0 9 -50 12 -62 5z"/>
<path d="M2718 5953 c17 -2 47 -2 65 0 17 2 3 4 -33 4 -36 0 -50 -2 -32 -4z"/>
<path d="M2848 5953 c12 -2 32 -2 45 0 12 2 2 4 -23 4 -25 0 -35 -2 -22 -4z"/>
<path d="M3068 5953 c7 -3 16 -2 19 1 4 3 -2 6 -13 5 -11 0 -14 -3 -6 -6z"/>
<path d="M3588 5953 c12 -2 30 -2 40 0 9 3 -1 5 -23 4 -22 0 -30 -2 -17 -4z"/>
<path d="M5650 5941 c0 -12 2 -21 4 -21 2 0 12 -3 22 -7 12 -4 15 -3 10 5 -9
15 13 15 126 1 48 -6 96 -18 105 -25 17 -12 12 -19 -49 -77 -38 -35 -68 -69
-68 -75 0 -7 1 -12 3 -12 2 0 36 31 76 70 105 100 93 120 -83 139 -55 7 -110
14 -123 17 -19 5 -23 2 -23 -15z"/>
<path d="M8533 5934 c-18 -9 -33 -24 -33 -34 0 -19 25 -43 54 -54 14 -5 16 -9
7 -20 -20 -23 -84 -29 -139 -12 -51 15 -51 15 -43 -7 7 -18 18 -23 57 -25 64
-4 107 4 135 26 26 22 19 57 -12 67 -19 7 -20 8 -3 26 23 26 28 25 74 -18 l39
-37 -25 -44 c-40 -68 -25 -84 19 -19 20 31 37 59 37 61 0 9 -81 86 -100 96
-24 13 -29 13 -67 -6z"/>
<path d="M13 5923 c9 -2 23 -2 30 0 6 3 -1 5 -18 5 -17 0 -22 -2 -12 -5z"/>
<path d="M93 5923 c9 -2 25 -2 35 0 9 3 1 5 -18 5 -19 0 -27 -2 -17 -5z"/>
<path d="M6720 5918 c0 -9 5 -20 10 -23 13 -8 13 5 0 25 -8 13 -10 13 -10 -2z"/>
<path d="M3757 5879 c7 -7 15 -10 18 -7 3 3 -2 9 -12 12 -14 6 -15 5 -6 -5z"/>
<path d="M5727 5864 c-4 -4 -59 -15 -122 -24 -64 -10 -119 -21 -122 -24 -3 -3
-2 -13 1 -23 6 -15 9 -15 16 -3 6 9 49 21 116 31 97 16 136 30 123 44 -3 3 -9
2 -12 -1z"/>
<path d="M5328 5534 c-5 -4 -8 -16 -8 -26 0 -10 -10 -23 -22 -28 -18 -7 -19
-9 -5 -9 9 -1 17 -6 17 -12 0 -13 30 -38 45 -38 6 0 2 4 -7 10 -34 19 -21 39
25 39 142 1 563 13 567 17 2 2 -124 4 -280 3 -157 -1 -293 -1 -302 -1 -10 1
-18 11 -20 27 -2 14 -6 22 -10 18z"/>
<path d="M9218 5523 c12 -2 32 -2 45 0 12 2 2 4 -23 4 -25 0 -35 -2 -22 -4z"/>
<path d="M8314 5509 c-5 -9 225 -2 235 7 2 2 -48 4 -112 3 -64 0 -119 -5 -123
-10z"/>
<path d="M8628 5513 c12 -2 30 -2 40 0 9 3 -1 5 -23 4 -22 0 -30 -2 -17 -4z"/>
<path d="M5225 5480 c3 -5 8 -10 11 -10 2 0 4 5 4 10 0 6 -5 10 -11 10 -5 0
-7 -4 -4 -10z"/>
<path d="M2400 5460 l-165 -6 162 -2 c99 -1 164 2 168 8 3 6 5 9 3 8 -2 -1
-77 -5 -168 -8z"/>
<path d="M2813 5463 c9 -2 23 -2 30 0 6 3 -1 5 -18 5 -16 0 -22 -2 -12 -5z"/>
<path d="M2893 5463 c9 -2 25 -2 35 0 9 3 1 5 -18 5 -19 0 -27 -2 -17 -5z"/>
<path d="M3008 5463 c6 -2 18 -2 25 0 6 3 1 5 -13 5 -14 0 -19 -2 -12 -5z"/>
<path d="M3108 5463 c18 -2 45 -2 60 0 15 2 0 4 -33 4 -33 0 -45 -2 -27 -4z"/>
<path d="M3308 5463 c45 -2 119 -2 165 0 45 1 8 3 -83 3 -91 0 -128 -2 -82 -3z"/>
<path d="M3593 5463 c15 -2 39 -2 55 0 15 2 2 4 -28 4 -30 0 -43 -2 -27 -4z"/>
<path d="M3698 5463 c12 -2 30 -2 40 0 9 3 -1 5 -23 4 -22 0 -30 -2 -17 -4z"/>
<path d="M0 5433 c0 -5 87 -7 192 -5 368 4 401 8 106 10 -164 1 -298 -1 -298
-5z"/>
<path d="M5300 5350 c0 -5 5 -10 10 -10 6 0 10 5 10 10 0 6 -4 10 -10 10 -5 0
-10 -4 -10 -10z"/>
<path d="M8725 5271 c-3 -5 2 -11 10 -15 8 -3 17 -1 20 3 3 5 -2 11 -10 15 -8
3 -17 1 -20 -3z"/>
<path d="M8727 5221 c-4 -17 -2 -18 14 -8 22 14 25 27 5 27 -7 0 -16 -9 -19
-19z"/>
<path d="M10738 5053 c-27 -7 -23 -43 5 -43 25 0 47 17 47 37 0 13 -18 15 -52
6z"/>
<path d="M9160 5030 c0 -5 7 -10 15 -10 8 0 15 5 15 10 0 6 -7 10 -15 10 -8 0
-15 -4 -15 -10z"/>
<path d="M9303 5033 c59 -2 154 -2 210 0 56 1 8 3 -108 3 -115 0 -161 -2 -102
-3z"/>
<path d="M8988 5023 c7 -3 16 -2 19 1 4 3 -2 6 -13 5 -11 0 -14 -3 -6 -6z"/>
<path d="M6143 4993 c15 -2 39 -2 55 0 15 2 2 4 -28 4 -30 0 -43 -2 -27 -4z"/>
<path d="M6248 4993 c7 -3 16 -2 19 1 4 3 -2 6 -13 5 -11 0 -14 -3 -6 -6z"/>
<path d="M6303 4993 c9 -2 23 -2 30 0 6 3 -1 5 -18 5 -16 0 -22 -2 -12 -5z"/>
<path d="M6565 4990 c-3 -6 1 -7 9 -4 18 7 21 14 7 14 -6 0 -13 -4 -16 -10z"/>
<path d="M3768 4975 c-3 -3 -233 -5 -512 -5 -296 0 -506 -4 -506 -9 0 -5 129
-7 315 -4 232 4 315 3 315 -6 0 -6 17 -11 40 -11 22 0 40 5 40 11 0 7 58 10
188 9 103 -1 239 -1 302 1 108 2 111 3 50 9 -79 9 -225 12 -232 5z"/>
<path d="M6308 4973 c7 -3 16 -2 19 1 4 3 -2 6 -13 5 -11 0 -14 -3 -6 -6z"/>
<path d="M5975 4960 c-3 -6 1 -7 9 -4 18 7 21 14 7 14 -6 0 -13 -4 -16 -10z"/>
<path d="M5700 4950 c0 -5 11 -10 25 -10 14 0 25 5 25 10 0 6 -11 10 -25 10
-14 0 -25 -4 -25 -10z"/>
<path d="M3526 4941 c-3 -5 1 -15 10 -22 13 -10 17 -10 25 2 5 8 9 17 9 22 0
10 -38 9 -44 -2z"/>
<path d="M5513 4943 c-18 -6 -16 -23 1 -23 17 0 30 16 19 23 -5 2 -14 2 -20 0z"/>
<path d="M5255 4840 c-3 -5 1 -10 9 -10 9 0 16 5 16 10 0 6 -4 10 -9 10 -6 0
-13 -4 -16 -10z"/>
<path d="M7247 4623 c-4 -3 -7 -13 -7 -22 1 -13 3 -13 11 2 11 19 8 33 -4 20z"/>
<path d="M11003 4563 c53 -2 141 -2 195 0 53 1 9 3 -98 3 -107 0 -151 -2 -97
-3z"/>
<path d="M11337 4563 c18 -2 50 -2 70 0 21 2 7 4 -32 4 -38 0 -55 -2 -38 -4z"/>
<path d="M10173 4553 c9 -2 23 -2 30 0 6 3 -1 5 -18 5 -16 0 -22 -2 -12 -5z"/>
<path d="M10353 4553 c75 -2 199 -2 275 0 75 1 13 3 -138 3 -151 0 -213 -2
-137 -3z"/>
<path d="M9298 4543 c7 -3 16 -2 19 1 4 3 -2 6 -13 5 -11 0 -14 -3 -6 -6z"/>
<path d="M9418 4543 c50 -2 134 -2 185 0 50 1 9 3 -93 3 -102 0 -143 -2 -92
-3z"/>
<path d="M9763 4543 c20 -2 54 -2 75 0 20 2 3 4 -38 4 -41 0 -58 -2 -37 -4z"/>
<path d="M8215 4530 l-260 -6 325 0 c179 -1 476 2 660 6 l335 6 -400 0 c-220
-1 -517 -3 -660 -6z"/>
<path d="M7785 4520 l-50 -7 45 -1 c25 -1 52 3 60 8 8 5 11 9 5 8 -5 -1 -32
-4 -60 -8z"/>
<path d="M7876 4521 c-3 -4 6 -6 19 -3 14 2 25 6 25 8 0 8 -39 4 -44 -5z"/>
<path d="M7083 4514 c6 -7 639 -5 646 1 2 3 -143 5 -324 5 -181 0 -326 -3
-322 -6z"/>
<path d="M6613 4503 c9 -2 25 -2 35 0 9 3 1 5 -18 5 -19 0 -27 -2 -17 -5z"/>
<path d="M6698 4503 c7 -3 16 -2 19 1 4 3 -2 6 -13 5 -11 0 -14 -3 -6 -6z"/>
<path d="M6830 4449 c0 -5 5 -7 10 -4 6 3 10 8 10 11 0 2 -4 4 -10 4 -5 0 -10
-5 -10 -11z"/>
<path d="M11648 4083 c6 -2 18 -2 25 0 6 3 1 5 -13 5 -14 0 -19 -2 -12 -5z"/>
<path d="M11733 4083 c26 -2 67 -2 90 0 23 2 2 3 -48 3 -49 0 -68 -1 -42 -3z"/>
<path d="M972 4060 c0 -14 2 -19 5 -12 2 6 2 18 0 25 -3 6 -5 1 -5 -13z"/>
<path d="M10978 4073 c7 -3 16 -2 19 1 4 3 -2 6 -13 5 -11 0 -14 -3 -6 -6z"/>
<path d="M11333 4073 c9 -2 25 -2 35 0 9 3 1 5 -18 5 -19 0 -27 -2 -17 -5z"/>
<path d="M10483 4063 c54 -2 139 -2 190 0 51 1 7 3 -98 3 -104 0 -146 -2 -92
-3z"/>
<path d="M10868 4063 c7 -3 16 -2 19 1 4 3 -2 6 -13 5 -11 0 -14 -3 -6 -6z"/>
<path d="M9733 4053 c9 -2 25 -2 35 0 9 3 1 5 -18 5 -19 0 -27 -2 -17 -5z"/>
<path d="M9888 4053 c46 -2 118 -2 160 0 42 1 5 3 -83 3 -88 0 -123 -2 -77 -3z"/>
<path d="M8919 4046 c-2 -3 -144 -6 -314 -7 -171 -2 -321 -6 -335 -10 -14 -5
79 -6 205 -4 127 3 403 8 615 11 212 3 387 8 389 10 2 2 -122 4 -276 4 -154 0
-282 -2 -284 -4z"/>
<path d="M9603 4043 c9 -2 23 -2 30 0 6 3 -1 5 -18 5 -16 0 -22 -2 -12 -5z"/>
<path d="M7742 4024 c7 -6 490 -5 497 1 2 3 -110 5 -249 5 -139 0 -251 -3
-248 -6z"/>
<path d="M905 3849 c-4 -6 -5 -12 -2 -15 2 -3 7 2 10 11 7 17 1 20 -8 4z"/>
<path d="M11868 3593 c6 -2 18 -2 25 0 6 3 1 5 -13 5 -14 0 -19 -2 -12 -5z"/>
<path d="M11408 3583 c7 -3 16 -2 19 1 4 3 -2 6 -13 5 -11 0 -14 -3 -6 -6z"/>
<path d="M10773 3573 c15 -2 39 -2 55 0 15 2 2 4 -28 4 -30 0 -43 -2 -27 -4z"/>
<path d="M10913 3573 c26 -2 67 -2 90 0 23 2 2 3 -48 3 -49 0 -68 -1 -42 -3z"/>
<path d="M10253 3563 c9 -2 25 -2 35 0 9 3 1 5 -18 5 -19 0 -27 -2 -17 -5z"/>
<path d="M10373 3563 c26 -2 67 -2 90 0 23 2 2 3 -48 3 -49 0 -68 -1 -42 -3z"/>
<path d="M10588 3563 c12 -2 32 -2 45 0 12 2 2 4 -23 4 -25 0 -35 -2 -22 -4z"/>
<path d="M10678 3563 c7 -3 16 -2 19 1 4 3 -2 6 -13 5 -11 0 -14 -3 -6 -6z"/>
<path d="M9888 3553 c45 -2 119 -2 165 0 45 1 8 3 -83 3 -91 0 -128 -2 -82 -3z"/>
<path d="M9118 3544 c-2 -1 -139 -4 -305 -5 -167 -1 -308 -6 -315 -11 -12 -7
194 -5 852 12 l305 7 -267 0 c-147 0 -269 -1 -270 -3z"/>
<path d="M7995 3520 c-4 -6 11 -10 37 -9 36 1 39 2 18 9 -36 11 -48 11 -55 0z"/>
<path d="M8083 3524 c7 -7 389 -5 396 2 2 2 -87 4 -199 4 -112 0 -200 -3 -197
-6z"/>
<path d="M7483 3513 c48 -2 125 -2 170 0 45 1 6 3 -88 3 -93 0 -130 -2 -82 -3z"/>
<path d="M7778 3513 c23 -2 59 -2 80 0 20 2 1 4 -43 4 -44 0 -61 -2 -37 -4z"/>
<path d="M7913 3513 c9 -2 23 -2 30 0 6 3 -1 5 -18 5 -16 0 -22 -2 -12 -5z"/>
<path d="M766 3481 c-18 -34 -19 -41 -8 -41 9 0 34 61 28 68 -3 2 -12 -10 -20
-27z"/>
<path d="M866 3494 c-4 -9 -4 -19 -1 -22 2 -3 7 3 11 12 4 9 4 19 1 22 -2 3
-7 -3 -11 -12z"/>
<path d="M689 3274 c-6 -16 -13 -45 -15 -64 -3 -25 1 -18 15 25 21 60 21 91 0
39z"/>
<path d="M646 3115 c-9 -33 -19 -67 -22 -77 -3 -9 -1 -19 4 -22 10 -6 46 127
40 146 -3 7 -13 -14 -22 -47z"/>
<path d="M832 3110 c0 -14 2 -19 5 -12 2 6 2 18 0 25 -3 6 -5 1 -5 -13z"/>
<path d="M11858 3103 c29 -2 74 -2 100 0 26 2 2 3 -53 3 -55 0 -76 -1 -47 -3z"/>
<path d="M11578 3093 c7 -3 16 -2 19 1 4 3 -2 6 -13 5 -11 0 -14 -3 -6 -6z"/>
<path d="M10888 3073 c7 -3 16 -2 19 1 4 3 -2 6 -13 5 -11 0 -14 -3 -6 -6z"/>
<path d="M10218 3063 c7 -3 16 -2 19 1 4 3 -2 6 -13 5 -11 0 -14 -3 -6 -6z"/>
<path d="M10398 3063 c7 -3 16 -2 19 1 4 3 -2 6 -13 5 -11 0 -14 -3 -6 -6z"/>
<path d="M9883 3053 c26 -2 68 -2 95 0 26 2 4 3 -48 3 -52 0 -74 -1 -47 -3z"/>
<path d="M10048 3053 c6 -2 18 -2 25 0 6 3 1 5 -13 5 -14 0 -19 -2 -12 -5z"/>
<path d="M9468 3043 c39 -2 105 -2 145 0 39 1 7 3 -73 3 -80 0 -112 -2 -72 -3z"/>
<path d="M8905 3032 c11 -4 103 -5 205 -2 l185 6 -205 1 c-113 1 -196 -1 -185
-5z"/>
<path d="M8418 3023 c6 -2 18 -2 25 0 6 3 1 5 -13 5 -14 0 -19 -2 -12 -5z"/>
<path d="M8553 3023 c43 -2 110 -2 150 0 40 1 5 3 -78 3 -82 0 -115 -2 -72 -3z"/>
<path d="M608 2966 c-7 -39 -4 -55 8 -44 3 3 4 23 2 44 l-3 39 -7 -39z"/>
<path d="M11953 2613 c9 -2 25 -2 35 0 9 3 1 5 -18 5 -19 0 -27 -2 -17 -5z"/>
<path d="M11748 2603 c18 -2 45 -2 60 0 15 2 0 4 -33 4 -33 0 -45 -2 -27 -4z"/>
<path d="M11418 2593 c12 -2 30 -2 40 0 9 3 -1 5 -23 4 -22 0 -30 -2 -17 -4z"/>
<path d="M11558 2593 c6 -2 18 -2 25 0 6 3 1 5 -13 5 -14 0 -19 -2 -12 -5z"/>
<path d="M10230 2560 c-8 -5 -10 -10 -5 -10 6 0 17 5 25 10 8 5 11 10 5 10 -5
0 -17 -5 -25 -10z"/>
<path d="M10333 2563 c9 -2 23 -2 30 0 6 3 -1 5 -18 5 -16 0 -22 -2 -12 -5z"/>
<path d="M10398 2563 c12 -2 32 -2 45 0 12 2 2 4 -23 4 -25 0 -35 -2 -22 -4z"/>
<path d="M10078 2553 c18 -2 45 -2 60 0 15 2 0 4 -33 4 -33 0 -45 -2 -27 -4z"/>
<path d="M9613 2543 c15 -2 37 -2 50 0 12 2 0 4 -28 4 -27 0 -38 -2 -22 -4z"/>
<path d="M9738 2543 c6 -2 18 -2 25 0 6 3 1 5 -13 5 -14 0 -19 -2 -12 -5z"/>
<path d="M9838 2543 c7 -3 16 -2 19 1 4 3 -2 6 -13 5 -11 0 -14 -3 -6 -6z"/>
<path d="M9153 2528 c-6 -10 45 -8 77 2 19 7 14 8 -23 7 -27 -1 -51 -5 -54 -9z"/>
<path d="M9323 2533 c37 -2 97 -2 135 0 37 2 6 3 -68 3 -74 0 -105 -1 -67 -3z"/>
<path d="M8913 2523 c26 -2 67 -2 90 0 23 2 2 3 -48 3 -49 0 -68 -1 -42 -3z"/>
<path d="M9073 2523 c15 -2 37 -2 50 0 12 2 0 4 -28 4 -27 0 -38 -2 -22 -4z"/>
<path d="M8410 2510 c0 -5 14 -7 33 -3 45 8 47 13 4 13 -20 0 -37 -4 -37 -10z"/>
<path d="M8573 2513 c42 -2 112 -2 155 0 42 1 7 3 -78 3 -85 0 -120 -2 -77 -3z"/>
<path d="M11828 2103 c23 -2 59 -2 80 0 20 2 1 4 -43 4 -44 0 -61 -2 -37 -4z"/>
<path d="M11558 2093 c28 -2 76 -2 105 0 28 2 5 3 -53 3 -58 0 -81 -1 -52 -3z"/>
<path d="M11015 2080 l-140 -6 130 -1 c72 0 200 3 285 7 l155 6 -145 0 c-80 0
-208 -3 -285 -6z"/>
<path d="M11458 2083 c6 -2 18 -2 25 0 6 3 1 5 -13 5 -14 0 -19 -2 -12 -5z"/>
<path d="M10588 2063 c7 -3 16 -2 19 1 4 3 -2 6 -13 5 -11 0 -14 -3 -6 -6z"/>
<path d="M10678 2063 c12 -2 32 -2 45 0 12 2 2 4 -23 4 -25 0 -35 -2 -22 -4z"/>
<path d="M10100 2050 l-135 -6 132 -2 c79 -1 134 2 138 8 3 6 5 9 3 8 -2 -1
-64 -5 -138 -8z"/>
<path d="M10323 2053 c42 -2 112 -2 155 0 42 1 7 3 -78 3 -85 0 -120 -2 -77
-3z"/>
<path d="M9713 2033 c31 -2 83 -2 115 0 31 2 5 3 -58 3 -63 0 -89 -1 -57 -3z"/>
<path d="M805 1709 c-4 -6 -5 -13 -2 -16 7 -7 27 6 27 18 0 12 -17 12 -25 -2z"/>
<path d="M11913 1613 c9 -2 23 -2 30 0 6 3 -1 5 -18 5 -16 0 -22 -2 -12 -5z"/>
<path d="M11688 1603 c7 -3 16 -2 19 1 4 3 -2 6 -13 5 -11 0 -14 -3 -6 -6z"/>
<path d="M11458 1593 c6 -2 18 -2 25 0 6 3 1 5 -13 5 -14 0 -19 -2 -12 -5z"/>
<path d="M11523 1593 c15 -2 39 -2 55 0 15 2 2 4 -28 4 -30 0 -43 -2 -27 -4z"/>
<path d="M11288 1583 c29 -2 74 -2 100 0 26 2 2 3 -53 3 -55 0 -76 -1 -47 -3z"/>
<path d="M10788 1571 c-97 -3 -179 -9 -183 -12 -7 -7 225 -2 480 11 l150 7
-135 0 c-74 -1 -215 -3 -312 -6z"/>
<path d="M10463 1553 c26 -2 67 -2 90 0 23 2 2 3 -48 3 -49 0 -68 -1 -42 -3z"/>
<path d="M10110 1543 c0 -5 44 -7 97 -5 156 4 168 9 31 10 -71 1 -128 -1 -128
-5z"/>
<path d="M9830 1530 c-10 -6 -2 -7 25 -3 49 7 58 13 19 13 -16 0 -36 -5 -44
-10z"/>
<path d="M9958 1533 c23 -2 59 -2 80 0 20 2 1 4 -43 4 -44 0 -61 -2 -37 -4z"/>
<path d="M9613 1523 c26 -2 68 -2 95 0 26 2 4 3 -48 3 -52 0 -74 -1 -47 -3z"/>
<path d="M0 1440 c0 -5 5 -10 10 -10 6 0 10 5 10 10 0 6 -4 10 -10 10 -5 0
-10 -4 -10 -10z"/>
<path d="M6060 1335 c-11 -13 -10 -14 4 -9 9 3 16 10 16 15 0 13 -6 11 -20 -6z"/>
<path d="M11088 1063 c12 -2 32 -2 45 0 12 2 2 4 -23 4 -25 0 -35 -2 -22 -4z"/>
<path d="M10898 1053 c12 -2 32 -2 45 0 12 2 2 4 -23 4 -25 0 -35 -2 -22 -4z"/>
<path d="M10603 1043 c20 -2 54 -2 75 0 20 2 3 4 -38 4 -41 0 -58 -2 -37 -4z"/>
<path d="M10373 1033 c31 -2 83 -2 115 0 31 2 5 3 -58 3 -63 0 -89 -1 -57 -3z"/>
<path d="M10133 1023 c9 -2 23 -2 30 0 6 3 -1 5 -18 5 -16 0 -22 -2 -12 -5z"/>
<path d="M10193 1023 c9 -2 25 -2 35 0 9 3 1 5 -18 5 -19 0 -27 -2 -17 -5z"/>
<path d="M9927 1013 c18 -2 50 -2 70 0 21 2 7 4 -32 4 -38 0 -55 -2 -38 -4z"/>
<path d="M9547 999 c7 -7 15 -10 18 -7 3 3 -2 9 -12 12 -14 6 -15 5 -6 -5z"/>
<path d="M9618 1003 c23 -2 61 -2 85 0 23 2 4 4 -43 4 -47 0 -66 -2 -42 -4z"/>
<path d="M9135 990 l-140 -6 140 -1 c77 0 194 3 260 7 l120 6 -120 0 c-66 0
-183 -3 -260 -6z"/>
<path d="M8820 980 l-125 -6 130 -1 c72 0 139 3 150 8 18 7 17 7 -5 6 -14 0
-81 -4 -150 -7z"/>
<path d="M8410 962 c0 -7 233 -5 255 3 6 2 -50 4 -122 4 -73 1 -133 -3 -133
-7z"/>
<path d="M11178 563 c7 -3 16 -2 19 1 4 3 -2 6 -13 5 -11 0 -14 -3 -6 -6z"/>
<path d="M10973 553 c15 -2 37 -2 50 0 12 2 0 4 -28 4 -27 0 -38 -2 -22 -4z"/>
<path d="M10813 543 c9 -2 25 -2 35 0 9 3 1 5 -18 5 -19 0 -27 -2 -17 -5z"/>
<path d="M10683 533 c9 -2 23 -2 30 0 6 3 -1 5 -18 5 -16 0 -22 -2 -12 -5z"/>
<path d="M10428 523 c12 -2 30 -2 40 0 9 3 -1 5 -23 4 -22 0 -30 -2 -17 -4z"/>
<path d="M10523 523 c9 -2 23 -2 30 0 6 3 -1 5 -18 5 -16 0 -22 -2 -12 -5z"/>
<path d="M10263 513 c20 -2 54 -2 75 0 20 2 3 4 -38 4 -41 0 -58 -2 -37 -4z"/>
<path d="M10088 503 c7 -3 16 -2 19 1 4 3 -2 6 -13 5 -11 0 -14 -3 -6 -6z"/>
<path d="M10138 503 c7 -3 16 -2 19 1 4 3 -2 6 -13 5 -11 0 -14 -3 -6 -6z"/>
<path d="M9858 493 c12 -2 32 -2 45 0 12 2 2 4 -23 4 -25 0 -35 -2 -22 -4z"/>
<path d="M9603 483 c15 -2 39 -2 55 0 15 2 2 4 -28 4 -30 0 -43 -2 -27 -4z"/>
<path d="M8775 450 c-3 -5 -1 -10 4 -10 6 0 11 5 11 10 0 6 -2 10 -4 10 -3 0
-8 -4 -11 -10z"/>
<path d="M8923 453 c9 -2 25 -2 35 0 9 3 1 5 -18 5 -19 0 -27 -2 -17 -5z"/>
<path d="M8460 440 c0 -5 5 -10 11 -10 5 0 7 5 4 10 -3 6 -8 10 -11 10 -2 0
-4 -4 -4 -10z"/>
<path d="M8490 440 c0 -7 131 -2 139 6 2 2 -28 3 -67 3 -40 -1 -72 -5 -72 -9z"/>
<path d="M8668 443 c12 -2 32 -2 45 0 12 2 2 4 -23 4 -25 0 -35 -2 -22 -4z"/>
<path d="M7945 432 c-82 -1 -153 -6 -158 -11 -4 -4 63 -6 150 -4 139 3 177 7
162 16 -2 1 -71 1 -154 -1z"/>
<path d="M8170 431 c8 -5 74 -6 145 -1 l130 7 -145 1 c-85 1 -139 -2 -130 -7z"/>
<path d="M2800 316 c0 -2 7 -7 16 -10 8 -3 12 -2 9 4 -6 10 -25 14 -25 6z"/>
<path d="M1120 220 c0 -5 5 -10 11 -10 5 0 7 5 4 10 -3 6 -8 10 -11 10 -2 0
-4 -4 -4 -10z"/>
<path d="M777 213 c-4 -3 -7 -11 -7 -17 0 -6 5 -5 12 2 6 6 9 14 7 17 -3 3 -9
2 -12 -2z"/>
<path d="M912 214 c8 -7 88 -8 95 0 4 3 -18 6 -47 6 -29 0 -51 -3 -48 -6z"/>
<path d="M278 203 c6 -2 18 -2 25 0 6 3 1 5 -13 5 -14 0 -19 -2 -12 -5z"/>
<path d="M812 203 c23 -6 33 -45 19 -71 -17 -32 -14 -92 4 -92 8 0 15 -7 15
-15 0 -8 -4 -15 -10 -15 -5 0 -10 5 -10 11 0 5 -4 7 -10 4 -19 -12 -10 -25 19
-25 l29 0 -5 60 c-4 45 -3 60 7 60 9 0 7 6 -5 20 -17 19 -17 21 -2 38 22 24
13 32 -32 31 -20 -1 -28 -3 -19 -6z"/>
<path d="M880 165 c0 -8 7 -15 15 -15 8 0 15 4 15 9 0 5 -7 11 -15 15 -9 3
-15 0 -15 -9z"/>
<path d="M937 153 c-12 -12 -7 -33 7 -33 8 0 16 -3 19 -7 2 -5 2 -2 0 5 -1 8
-3 20 -3 28 0 15 -12 19 -23 7z"/>
<path d="M1325 151 c-3 -5 -1 -12 5 -16 5 -3 10 1 10 9 0 18 -6 21 -15 7z"/>
<path d="M1212 110 c0 -14 2 -19 5 -12 2 6 2 18 0 25 -3 6 -5 1 -5 -13z"/>
<path d="M1083 60 c-10 -11 -23 -20 -29 -20 -15 0 -39 -29 -31 -36 3 -4 13 1
22 10 21 20 35 21 35 1 0 -11 11 -15 40 -15 33 0 40 3 40 20 0 13 -7 20 -20
20 -13 0 -20 7 -20 20 0 11 -5 20 -10 20 -6 0 -18 -9 -27 -20z"/>
<path d="M1222 60 c0 -14 2 -19 5 -12 2 6 2 18 0 25 -3 6 -5 1 -5 -13z"/>
<path d="M780 55 c0 -8 5 -15 10 -15 6 0 10 7 10 15 0 8 -4 15 -10 15 -5 0
-10 -7 -10 -15z"/>
<path d="M400 29 c0 -5 5 -7 10 -4 6 3 10 8 10 11 0 2 -4 4 -10 4 -5 0 -10 -5
-10 -11z"/>
<path d="M910 20 c0 -17 7 -20 51 -20 45 0 50 2 39 15 -7 9 -19 14 -27 11 -7
-3 -13 -1 -13 4 0 6 -11 10 -25 10 -18 0 -25 -5 -25 -20z"/>
<path d="M1337 20 c-3 -11 -1 -20 4 -20 5 0 9 9 9 20 0 11 -2 20 -4 20 -2 0
-6 -9 -9 -20z"/>
<path d="M1375 10 c-3 -5 -1 -10 4 -10 6 0 11 5 11 10 0 6 -2 10 -4 10 -3 0
-8 -4 -11 -10z"/>
</g>
</svg>
